<svg xmlns="http://www.w3.org/2000/svg" viewBox="0 0 1029.5 462.48"><defs><style>.cls-1{fill:#95a6aa;}.cls-2{fill:#eaefec;}.cls-3{fill:#555a72;}.cls-4{fill:#d3d3d3;}.cls-5{fill:#c2c4c2;}.cls-6{fill:#e09d92;}.cls-7{fill:#dcdcc7;}.cls-8{fill:#aac5cc;}.cls-9{fill:#a2c5ad;}.cls-10{fill:#bde1ca;}.cls-11{fill:#e3d5a9;}.cls-12{fill:#2f3556;}.cls-13{fill:#f9faf6;}.cls-14{fill:#030303;}.cls-15{fill:#231f20;}.cls-16{fill:#eded90;}.cls-17{fill:#454545;}.cls-18{fill:#090909;}.cls-19,.cls-20,.cls-22{fill:none;stroke-miterlimit:10;}.cls-19{stroke:#231f20;}.cls-19,.cls-20{stroke-width:2px;}.cls-20{stroke:#030303;}.cls-21{fill:#a35853;}.cls-22{stroke:#a35853;stroke-width:4px;}</style></defs><title>2nd grad_2</title><g id="Layer_2" data-name="Layer 2"><g id="Layer_6" data-name="Layer 6"><rect class="cls-1" width="981.5" height="462.48"/></g><g id="Layer_2-2" data-name="Layer 2"><rect class="cls-2" x="338.35" y="174.41" width="336.92" height="101.3"/><rect class="cls-3" x="378.63" y="249.14" width="16.57" height="16.57"/><rect class="cls-3" x="378.47" y="193.05" width="20.4" height="29.65"/><rect class="cls-3" x="350.63" y="193.05" width="20.4" height="29.65"/><rect class="cls-3" x="435.44" y="193.05" width="20.4" height="29.65"/><rect class="cls-3" x="407.6" y="193.05" width="20.4" height="29.65"/><rect class="cls-3" x="582.79" y="194.05" width="20.4" height="29.65"/><rect class="cls-3" x="554.95" y="194.05" width="20.4" height="29.65"/><rect class="cls-3" x="639.76" y="194.05" width="20.4" height="29.65"/><rect class="cls-3" x="611.93" y="194.05" width="20.4" height="29.65"/><rect class="cls-3" x="485.5" y="191.17" width="40.82" height="40.82"/><rect class="cls-3" x="471.6" y="191.17" width="8.9" height="40.07"/><rect class="cls-3" x="530.6" y="191.17" width="8.9" height="40.07"/><rect class="cls-3" x="494.8" y="243.65" width="23.48" height="31.95"/><rect class="cls-3" x="352.63" y="249.14" width="16.57" height="16.57"/><rect class="cls-3" x="407.63" y="249.14" width="16.57" height="16.57"/><rect class="cls-3" x="435.63" y="249.14" width="16.57" height="16.57"/><rect class="cls-3" x="582.63" y="249.14" width="16.57" height="16.57"/><rect class="cls-3" x="555.63" y="249.14" width="16.57" height="16.57"/><rect class="cls-3" x="610.63" y="249.14" width="16.57" height="16.57"/><rect class="cls-3" x="638.63" y="249.14" width="16.57" height="16.57"/><rect class="cls-3" x="474.6" y="243.65" width="12.9" height="32.06"/><rect class="cls-3" x="524.6" y="243.65" width="12.9" height="32.06"/><rect class="cls-4" x="368.83" y="183.82" width="8.76" height="47.42"/><rect class="cls-4" x="455.83" y="183.82" width="8.76" height="47.42"/><rect class="cls-4" x="426.83" y="183.82" width="8.76" height="47.42"/><rect class="cls-4" x="398.83" y="183.82" width="8.76" height="47.42"/><rect class="cls-4" x="546.4" y="185.16" width="8.76" height="47.42"/><rect class="cls-4" x="632.4" y="185.16" width="8.76" height="47.42"/><rect class="cls-4" x="603.4" y="185.16" width="8.76" height="47.42"/><rect class="cls-4" x="575.4" y="185.16" width="8.76" height="47.42"/><rect class="cls-5" x="360.83" y="183.82" width="299.33" height="5.6"/><polygon class="cls-6" points="693.58 174.41 323.6 174.41 338.6 155.5 675.58 155.5 693.58 174.41"/><path class="cls-7" d="M93.6,107.94V299.28h15.95V270h12.4v29.33h14.17V107.94Zm23,125.79h-.89v9.74h-4v-9.74h-1.33V216.9h6.2Zm0-26.58h-.89v4.43h-4v-4.43h-1.33V190.32h6.2Zm0-28.35h-.89v2.66h-4v-2.66h-1.33V162h6.2Zm2.17-44.86L114,131.16v6h-2.66v-7.55l-2.19-1.27,1.33-2.3.87.5V115H114v13.06l6.16,3.56Z"/><polyline class="cls-7" points="93.6 102.63 114.86 54.79 136.12 102.63"/><path class="cls-7" d="M122.83,153.12h-18.6V241.7h7.53V224h4V241.7h7.09Zm-7.09,58.47h-4V192.1h4Zm0-30.12h-4V162h4Z"/><rect class="cls-8" x="132.63" y="259.62" width="4.31" height="18.59"/><rect class="cls-9" x="218.05" y="194.83" width="16.3" height="92.31"/><path class="cls-9" d="M219.37,209.13a29,29,0,0,0,1.64,9.53c7.26-21,38-37.14,76-39.19V160.41C253.44,162.76,219.37,183.67,219.37,209.13Z"/><path class="cls-10" d="M389.31,218.66a29,29,0,0,0,1.64-9.53c0-27-38.41-48.94-85.79-48.94-2.76,0-5.48.08-8.17.23v19.06q4-.22,8.17-.22C346.82,179.25,381.53,196.19,389.31,218.66Z"/><rect class="cls-10" x="376.01" y="194.83" width="16.3" height="92.31"/><path class="cls-10" d="M295.81,163.24c-8.17,0-14.57-9.62-14.57-21.91s6.4-21.91,14.57-21.91,14.57,9.62,14.57,21.91S304,163.24,295.81,163.24Zm0-39.18c-5.39,0-9.94,7.91-9.94,17.27s4.55,17.27,9.94,17.27,9.94-7.91,9.94-17.27S301.2,124.06,295.81,124.06Z"/><rect class="cls-8" x="156.81" y="205.67" width="4.31" height="18.59"/><rect class="cls-8" x="171.38" y="225.06" width="4.31" height="18.59"/><rect class="cls-8" x="149.36" y="241.46" width="4.31" height="18.59"/><rect class="cls-8" x="137.44" y="222.7" width="4.31" height="18.59"/><rect class="cls-8" x="197.57" y="205.45" width="4.31" height="18.59" transform="translate(399.45 429.49) rotate(-180)"/><rect class="cls-8" x="169.03" y="135.47" width="4.31" height="18.59"/><rect class="cls-8" x="183.6" y="154.86" width="4.31" height="18.59"/><polygon class="cls-11" points="228.02 252.13 243.59 303.68 243.59 316.23 234.46 312.43 234.46 294.93 231.41 305.2 226.09 302.54 232.93 289.98 215.76 255.59 228.02 252.13"/><polygon class="cls-11" points="130.51 250.14 114.94 301.69 114.94 314.25 124.07 310.44 124.07 292.94 127.11 303.21 132.44 300.55 125.59 287.99 142.77 253.61 130.51 250.14"/><path class="cls-12" d="M179.29,189c-3.1,2.2-7.62,1.37-13.74-9.31l-22.22,20.87s-28,70.88-28.46,80.79,13.06,14.51,17.53,10.62,10.18-35.61,10.18-35.61l.8,19.24s14.94,15.72,35.91,14.67Z"/><path class="cls-12" d="M175.59,189c3.1,2.2,7.62,1.37,13.74-9.31l22.22,20.87s28,70.88,28.46,80.79-13.06,14.51-17.53,10.62-10.18-35.61-10.18-35.61l-.8,19.24s-14.94,15.72-35.91,14.67Z"/><path class="cls-13" d="M236.07,340.51"/><polygon class="cls-11" points="153.75 385.79 153.75 402.91 140.43 414.9 147.09 417.18 163.92 405.76 162.32 385.79 153.75 385.79"/><path class="cls-14" d="M140.43,414.9s-12.22,6.56-11.58,10.85,38.73-13.13,38.73-13.13v-8.85l-4-2.28.34,4.28-16.83,11.42Z"/><polygon class="cls-11" points="153.75 385.79 153.75 402.91 140.43 414.9 147.09 417.18 163.92 405.76 162.32 385.79 153.75 385.79"/><path class="cls-14" d="M140.43,414.9s-12.22,6.56-11.58,10.85,38.73-13.13,38.73-13.13v-8.85l-4-2.28.34,4.28-16.83,11.42Z"/><polygon class="cls-11" points="195.11 385.73 195.11 402.86 208.44 414.84 201.78 417.13 184.94 405.71 186.54 385.73 195.11 385.73"/><path class="cls-14" d="M208.44,414.84s12.22,6.56,11.58,10.85-38.73-13.13-38.73-13.13v-8.85l4-2.28-.34,4.28,16.83,11.42Z"/><polygon class="cls-11" points="195.11 385.73 195.11 402.86 208.44 414.84 201.78 417.13 184.94 405.71 186.54 385.73 195.11 385.73"/><path class="cls-14" d="M208.44,414.84s12.22,6.56,11.58,10.85-38.73-13.13-38.73-13.13v-8.85l4-2.28-.34,4.28,16.83,11.42Z"/><path class="cls-11" d="M187,187.13c0,6.29-9.72,11.4-9.72,11.4s-9.72-5.1-9.72-11.4,4.35-1.68,9.72-1.68S187,180.84,187,187.13Z"/><ellipse class="cls-11" cx="177.3" cy="150.41" rx="32.51" ry="35.05"/><path class="cls-14" d="M209.78,141.47c0,19,6.2-2.43-11.75-2.43-11.5,0-23.56-5.67-29.34-15.22-1.21-2-5.18,5.41-9.26,9.47-6.87,6.84-14.68,12.48-14.68,8.19,0-19,14.54-33.48,32.5-33.48S209.78,122.44,209.78,141.47Z"/><ellipse class="cls-15" cx="159.43" cy="151.14" rx="2.9" ry="4.36"/><ellipse class="cls-15" cx="195.45" cy="151.14" rx="2.9" ry="4.36"/><path class="cls-16" d="M185.07,230.21l-.62.51a11,11,0,0,1-4,2.2,7.51,7.51,0,0,1-2.59.23,1.94,1.94,0,0,1-1.69-1.52c-.05-.21-.09-.42-.15-.7l-.21.27a4.57,4.57,0,0,1-2.57,1.86,4,4,0,0,1-2.91-.36A2.53,2.53,0,0,1,169,231c0-.1-.05-.19-.08-.29a1,1,0,0,0-.05-.11l-.27.22a8.94,8.94,0,0,1-4.08,2.19,6.67,6.67,0,0,1-6.28-1.77,4.93,4.93,0,0,1-1.38-2.92,13.24,13.24,0,0,1,1.7-8.49,26.35,26.35,0,0,1,6.23-7.46,23.36,23.36,0,0,1,5.65-3.66,15.75,15.75,0,0,1,4.38-1.26,3.59,3.59,0,0,1,1.62.12,1.72,1.72,0,0,1,1.2,1.29,4,4,0,0,1-.41,2.87,7.89,7.89,0,0,1-2.37,2.84,2.2,2.2,0,0,1-1.84.55.92.92,0,0,1-.83-.69,1.09,1.09,0,0,1,.4-1.2,4.5,4.5,0,0,1,1-.47,5.92,5.92,0,0,1,.8-.17,2.52,2.52,0,0,0,2-2.87,1.19,1.19,0,0,0-1-.89,6.1,6.1,0,0,0-3.85,1.36,23.28,23.28,0,0,0-4.26,4.26A25,25,0,0,0,163,222a13.24,13.24,0,0,0-.85,4.74,6.64,6.64,0,0,0,.59,2.86,2.89,2.89,0,0,0,4.81.71,9.15,9.15,0,0,0,1.42-2.15,19.82,19.82,0,0,1,1.46-2.57,10.58,10.58,0,0,1,4.36-3.56,7.65,7.65,0,0,1,2.38-.55,1.68,1.68,0,0,1,1.44.57l.24.27a5.22,5.22,0,0,1,.33-.6.47.47,0,0,1,.31-.19c.82,0,1.63,0,2.45-.05.37,0,.49.13.43.5a1.93,1.93,0,0,1-.12.47c-.86,2-1.74,4.09-2.59,6.15a14,14,0,0,0-.47,1.56,1.31,1.31,0,0,0,0,.41c0,.7.32,1,1,.93a4.59,4.59,0,0,0,2.54-.94c.64-.45,1.22-1,1.82-1.47a.43.43,0,0,0,.1-.33c-.06-.72-.19-1.44-.2-2.17a14.63,14.63,0,0,1,1.46-6.59,22.16,22.16,0,0,1,6.3-8.12,9,9,0,0,1,2.17-1.29,2,2,0,0,1,.25-.1c1-.26,1.56.05,1.59,1.13a7.07,7.07,0,0,1-.58,2.75,42.75,42.75,0,0,1-5.35,9.76c-.69,1-1.42,1.89-2.12,2.84a.58.58,0,0,0-.13.34,7.66,7.66,0,0,0,.91,3.41,4.78,4.78,0,0,0,2.74,2.12c.58.2,1.19.35,1.76.56s.75.61.35,1.2a7.74,7.74,0,0,1-3.26,2.56,17,17,0,0,1-6.49,1.48c-2.12.1-4.23-.06-6.34-.16-1.52-.07-3-.13-4.57-.19-2.51-.08-5-.18-7.54-.22a29.18,29.18,0,0,0-6.18.46c-1.11.22-2.19.57-3.29.86,0,0-.09,0-.13,0s-.2,0-.25,0a.25.25,0,0,1,0-.24,7.74,7.74,0,0,1,.83-1.07,10.46,10.46,0,0,1,3.6-2.15,19.5,19.5,0,0,1,5.19-1.15,48.87,48.87,0,0,1,7.29,0c1.7.09,3.41.15,5.11.24s3.7.21,5.55.3c1.05.05,2.1.06,3.16.1a10.59,10.59,0,0,0,3.14-.25,8.18,8.18,0,0,0,1.21-.48.47.47,0,0,0,.33-.51.68.68,0,0,0-.39-.4,8.73,8.73,0,0,0-1.06-.24,7.41,7.41,0,0,1-3-1.49,6.32,6.32,0,0,1-1.53-1.72C185.17,230.33,185.13,230.29,185.07,230.21Zm-11,.59,0,.07a5.06,5.06,0,0,0,.83-.36,2.16,2.16,0,0,0,.62-.6,9,9,0,0,0,.69-1.28c.7-1.6,1.38-3.22,2.08-4.83a.69.69,0,0,0-.42-1,1.4,1.4,0,0,0-1.11,0,4.47,4.47,0,0,0-1.43,1.06,10.79,10.79,0,0,0-2.36,4.61,3.5,3.5,0,0,0-.06,1.34C173,230.61,173.23,230.74,174.06,230.8Zm14.24-5.95.2-.25a44.88,44.88,0,0,0,3.71-5.7c.82-1.52,1.58-3.08,2.33-4.65a3.55,3.55,0,0,0,.25-1.13.54.54,0,0,0-.21-.42c-.07-.05-.29,0-.4.12a9.74,9.74,0,0,0-1.91,2,32.51,32.51,0,0,0-2.86,4.91,10,10,0,0,0-1.09,3.43A16.37,16.37,0,0,0,188.29,224.86Z"/><polygon class="cls-11" points="153.75 385.79 152.18 322.81 163.92 328.04 162.32 385.79 153.75 385.79"/><polygon class="cls-11" points="194.97 386.45 196.55 320.08 184.8 325.59 186.4 386.45 194.97 386.45"/><path class="cls-17" d="M144.18,275.6l-14,63s9.58-7.28,18.55-5.33,12.21,5.33,23.6,5.33,23.84-3.26,23.84-3.26,5.74-8.1,21.4,1.24l10.51,2-16.44-63S175.12,301.55,144.18,275.6Z"/><path class="cls-14" d="M193.71,115.83S208,96,220,108s3.28,57.23,4.84,63.29,11.19,0,11.19,0-9.86,14.38-16,12.53-14.23-16.56-14.23-16.56S219.94,136.78,193.71,115.83Z"/><path class="cls-18" d="M177,168.47a6.71,6.71,0,0,1-6.61-5.52,6.71,6.71,0,1,0,13.21,0A6.71,6.71,0,0,1,177,168.47Z"/><g id="_Group_" data-name="&lt;Group&gt;"><path class="cls-15" d="M148.71,144.89a7.24,7.24,0,0,0-1.6,5.34H144.5s-.58-4.07-4.07-4.07V144l7.26-2.56s21.93-5.37,24.84,4.38a10.25,10.25,0,0,1-1.19,7.78,10.87,10.87,0,0,0,.47-3c0-1.24.06-3.46-1.16-5.08-2.23-3-12.12-4.73-17.43-3.49A7.24,7.24,0,0,0,148.71,144.89Z"/><path class="cls-19" d="M171.34,153.63a12.65,12.65,0,0,1-3.6,5.6,12.45,12.45,0,0,1-8,3.05,12.14,12.14,0,0,1-7.26-2.18,12.45,12.45,0,0,1-3.92-4.79,18.92,18.92,0,0,1-1.45-5.08,7.68,7.68,0,0,1,6.1-8.13c5.31-1.24,15.2.51,17.43,3.49,1.22,1.63,1.18,3.84,1.16,5.08a10.87,10.87,0,0,1-.47,3"/><path class="cls-19" d="M147.11,150.22H144.5s-.58-4.07-4.07-4.07V144l7.26-2.56s21.93-5.37,24.84,4.38a10.25,10.25,0,0,1-1.19,7.78h0"/></g><g id="_Group_2" data-name="&lt;Group&gt;"><path class="cls-15" d="M207.54,150.22h2.61s.58-4.07,4.07-4.07V144L207,141.47s-21.93-5.37-24.84,4.38a10.25,10.25,0,0,0,1.19,7.78,10.87,10.87,0,0,1-.47-3c0-1.24-.06-3.46,1.16-5.08,2.23-3,12.12-4.73,17.43-3.49a7.68,7.68,0,0,1,6.1,8.13Z"/><path class="cls-19" d="M183.31,153.63a12.65,12.65,0,0,0,3.6,5.6,12.45,12.45,0,0,0,8,3.05,12.14,12.14,0,0,0,7.26-2.18,12.45,12.45,0,0,0,3.92-4.79,18.92,18.92,0,0,0,1.45-5.08,7.68,7.68,0,0,0-6.1-8.13c-5.31-1.24-15.2.51-17.43,3.49-1.22,1.63-1.18,3.84-1.16,5.08a10.87,10.87,0,0,0,.47,3"/><line class="cls-19" x1="183.31" y1="153.63" x2="183.31" y2="153.63"/><path class="cls-20" d="M207.54,150.22h2.61s.58-4.07,4.07-4.07V144L207,141.47s-21.93-5.37-24.84,4.38a10.25,10.25,0,0,0,1.19,7.78"/></g><path class="cls-15" d="M182.48,150a1.32,1.32,0,0,1-1.31-1.16c-.16-1.35-1.68-2.45-3.53-2.57s-3.83.92-4.18,2.34a1.32,1.32,0,1,1-2.57-.64c.67-2.69,3.64-4.55,6.92-4.34s5.67,2.26,6,4.9a1.32,1.32,0,0,1-1.16,1.47Z"/><polygon class="cls-10" points="438.16 161.42 368.6 161.42 371.42 150.43 434.78 150.43 438.16 161.42"/><polygon class="cls-10" points="542.16 161.42 472.6 161.42 475.42 150.43 538.78 150.43 542.16 161.42"/><polygon class="cls-10" points="643.16 161.42 573.6 161.42 576.42 150.43 639.78 150.43 643.16 161.42"/><polygon class="cls-10" points="339.6 156.5 342.5 136.47 344.97 155.86 339.6 156.5"/><polygon class="cls-10" points="667.89 157.36 670.79 137.33 673.26 156.72 667.89 157.36"/><ellipse class="cls-10" cx="342.05" cy="135.44" rx="1.45" ry="2.02"/><ellipse class="cls-10" cx="670.79" cy="139.35" rx="1.45" ry="2.02"/><circle class="cls-16" cx="266.25" cy="74.71" r="20.31"/><circle class="cls-2" cx="486.57" cy="77.39" r="14.98"/><circle class="cls-2" cx="508.59" cy="68.55" r="14.98"/><circle class="cls-2" cx="526.32" cy="78.71" r="14.98"/><path class="cls-2" d="M486.57,92.37l39.75,1.31S509.64,55.82,486.57,92.37Z"/><circle class="cls-2" cx="670.18" cy="43.19" r="14.98"/><circle class="cls-2" cx="692.2" cy="34.34" r="14.98"/><circle class="cls-2" cx="709.93" cy="44.5" r="14.98"/><path class="cls-2" d="M670.18,58.16l39.75,1.31S693.26,21.61,670.18,58.16Z"/><circle class="cls-2" cx="842.55" cy="78.48" r="14.98"/><circle class="cls-2" cx="864.56" cy="69.63" r="14.98"/><circle class="cls-2" cx="882.29" cy="79.79" r="14.98"/><path class="cls-2" d="M842.55,93.45l39.75,1.31S865.62,56.9,842.55,93.45Z"/></g><g id="Layer_3" data-name="Layer 3"><path class="cls-2" d="M248.64,281.4c-36.17-4,128.66,24,182.59,108.62A231.51,231.51,0,0,1,450,426.37H494.8S415.62,300,248.64,281.4Z"/><rect class="cls-21" x="722.11" y="95.02" width="41.72" height="173.89"/><rect class="cls-21" x="909.11" y="95.02" width="45.71" height="173.89"/><rect class="cls-1" x="729.5" y="108" width="27" height="20.67" rx="4.54" ry="4.54"/><rect class="cls-1" x="729.5" y="138" width="27" height="20.67" rx="7.21" ry="7.21"/><rect class="cls-1" x="729.5" y="166" width="27" height="27" rx="7.71" ry="7.71"/><rect class="cls-1" x="729.5" y="202" width="27" height="68.92" rx="5.96" ry="5.96"/><rect class="cls-1" x="918.46" y="108" width="27" height="20.67" rx="5.23" ry="5.23"/><rect class="cls-1" x="918.46" y="138" width="27" height="20.67" rx="7.86" ry="7.86"/><rect class="cls-1" x="918.46" y="166" width="27" height="27" rx="9.06" ry="9.06"/><rect class="cls-1" x="918.46" y="203" width="27" height="68.92" rx="10.73" ry="10.73"/><rect class="cls-21" x="675.26" y="223.96" width="354.24" height="10.1"/><path class="cls-22" d="M763.82,95s72.89,225.6,145.28,0"/><path class="cls-22" d="M724.11,95s-12.36,100.1-48.85,107"/><path class="cls-22" d="M954.82,95s2.68,104.6,66.68,100.13"/><line class="cls-22" x1="780.25" y1="134.35" x2="780.25" y2="229.01"/><line class="cls-22" x1="815.61" y1="185.45" x2="815.61" y2="225.06"/><line class="cls-22" x1="856.88" y1="189.54" x2="856.88" y2="229.01"/><line class="cls-22" x1="890.27" y1="144.05" x2="890.27" y2="229.01"/></g></g></svg>