<svg id="Layer_1" data-name="Layer 1" xmlns="http://www.w3.org/2000/svg" viewBox="0 0 753.85 321.03"><defs><style>.cls-1{fill:#6f7883;}.cls-2{fill:#dcdcc7;}.cls-3{fill:#a2c5ad;}.cls-4{fill:#bde1ca;}.cls-5{fill:#aac5cc;}.cls-6{fill:#e3d5a9;}.cls-7{fill:#2f3556;}.cls-8{fill:#f9faf6;}.cls-9{fill:#030303;}.cls-10{fill:#231f20;}.cls-11{fill:#eded90;}.cls-12{fill:#454545;}.cls-13{fill:#090909;}.cls-14,.cls-15{fill:none;stroke-miterlimit:10;stroke-width:2px;}.cls-14{stroke:#231f20;}.cls-15{stroke:#030303;}</style></defs><title>Berkeley</title><rect class="cls-1" width="753.85" height="321.03"/><path class="cls-2" d="M65.44,205.52V350h12V327.82h9.36V350h10.7V205.52Zm17.39,95h-.67v7.36h-3v-7.36h-1V287.77h4.68Zm0-20.06h-.67v3.34h-3v-3.34h-1V267.71h4.68Zm0-21.4h-.67v2h-3v-2h-1V246.31h4.68Zm1.64-33.86L80.82,223v4.54h-2v-5.7l-1.66-1,1-1.74.65.38v-8.7h2v9.86l4.65,2.68Z" transform="translate(-19.08 -147.93)"/><polyline class="cls-2" points="46.36 53.58 62.41 17.47 78.46 53.58"/><path class="cls-2" d="M87.5,239.62h-14v66.87h5.68V293.12h3v13.37H87.5Zm-5.35,44.13h-3V269h3Zm0-22.74h-3V246.31h3Z" transform="translate(-19.08 -147.93)"/><rect class="cls-3" x="140.3" y="123.18" width="12.3" height="69.68"/><path class="cls-3" d="M160.37,281.9a21.9,21.9,0,0,0,1.24,7.2c5.48-15.84,28.7-28,57.35-29.58V245.13C186.09,246.9,160.37,262.69,160.37,281.9Z" transform="translate(-19.08 -147.93)"/><path class="cls-4" d="M288.65,289.1a21.9,21.9,0,0,0,1.24-7.2c0-20.4-29-36.95-64.76-36.95-2.08,0-4.14.06-6.17.17v14.39q3-.16,6.17-.17C256.58,259.35,282.79,272.14,288.65,289.1Z" transform="translate(-19.08 -147.93)"/><rect class="cls-4" x="259.54" y="123.18" width="12.3" height="69.68"/><path class="cls-4" d="M218.08,247.26c-6.17,0-11-7.26-11-16.54s4.83-16.54,11-16.54,11,7.26,11,16.54S224.25,247.26,218.08,247.26Zm0-29.58c-4.07,0-7.5,6-7.5,13s3.44,13,7.5,13,7.5-6,7.5-13S222.14,217.69,218.08,217.69Z" transform="translate(-19.08 -147.93)"/><rect class="cls-5" x="75.82" y="172.09" width="3.25" height="14.03"/><rect class="cls-5" x="94.07" y="131.37" width="3.25" height="14.03"/><rect class="cls-5" x="105.07" y="146.01" width="3.25" height="14.03"/><rect class="cls-5" x="88.45" y="158.38" width="3.25" height="14.03"/><rect class="cls-5" x="79.45" y="144.22" width="3.25" height="14.03"/><rect class="cls-5" x="143.92" y="279.13" width="3.25" height="14.03" transform="translate(272.01 424.36) rotate(-180)"/><rect class="cls-5" x="103.3" y="78.37" width="3.25" height="14.03"/><rect class="cls-5" x="114.3" y="93.01" width="3.25" height="14.03"/><polygon class="cls-6" points="147.82 166.43 159.58 205.35 159.58 214.83 152.68 211.96 152.68 198.74 150.39 206.5 146.37 204.49 151.53 195.01 138.57 169.05 147.82 166.43"/><polygon class="cls-6" points="74.22 164.93 62.47 203.85 62.47 213.33 69.36 210.46 69.36 197.24 71.66 205 75.68 202.99 70.51 193.51 83.47 167.55 74.22 164.93"/><path class="cls-7" d="M130.12,266.68c-2.34,1.66-5.75,1-10.38-7L103,275.41s-21.15,53.51-21.48,61,9.86,10.95,13.23,8,7.68-26.88,7.68-26.88l.61,14.52s11.27,11.86,27.11,11.08Z" transform="translate(-19.08 -147.93)"/><path class="cls-7" d="M127.32,266.68c2.34,1.66,5.75,1,10.38-7l16.77,15.75s21.15,53.51,21.48,61-9.86,10.95-13.23,8S155,317.53,155,317.53l-.61,14.52s-11.27,11.86-27.11,11.08Z" transform="translate(-19.08 -147.93)"/><path class="cls-8" d="M173,381.08" transform="translate(-19.08 -147.93)"/><polygon class="cls-6" points="91.76 267.33 91.76 280.26 81.71 289.31 86.74 291.03 99.44 282.41 98.23 267.33 91.76 267.33"/><path class="cls-9" d="M100.78,437.23s-9.22,5-8.74,8.19,29.23-9.91,29.23-9.91v-6.68l-3-1.72.26,3.23L105.81,439Z" transform="translate(-19.08 -147.93)"/><polygon class="cls-6" points="91.76 267.33 91.76 280.26 81.71 289.31 86.74 291.03 99.44 282.41 98.23 267.33 91.76 267.33"/><path class="cls-9" d="M100.78,437.23s-9.22,5-8.74,8.19,29.23-9.91,29.23-9.91v-6.68l-3-1.72.26,3.23L105.81,439Z" transform="translate(-19.08 -147.93)"/><polygon class="cls-6" points="122.99 267.29 122.99 280.22 133.04 289.26 128.01 290.99 115.31 282.37 116.52 267.29 122.99 267.29"/><path class="cls-9" d="M152.12,437.19s9.22,5,8.74,8.19-29.23-9.91-29.23-9.91v-6.68l3-1.72-.26,3.23,12.7,8.62Z" transform="translate(-19.08 -147.93)"/><polygon class="cls-6" points="122.99 267.29 122.99 280.22 133.04 289.26 128.01 290.99 115.31 282.37 116.52 267.29 122.99 267.29"/><path class="cls-9" d="M152.12,437.19s9.22,5,8.74,8.19-29.23-9.91-29.23-9.91v-6.68l3-1.72-.26,3.23,12.7,8.62Z" transform="translate(-19.08 -147.93)"/><path class="cls-6" d="M136,265.3c0,4.75-7.34,8.6-7.34,8.6s-7.34-3.85-7.34-8.6,3.28-1.27,7.34-1.27S136,260.55,136,265.3Z" transform="translate(-19.08 -147.93)"/><ellipse class="cls-6" cx="109.54" cy="89.65" rx="24.54" ry="26.45"/><path class="cls-9" d="M153.13,230.83c0,14.37,4.68-1.84-8.87-1.84-8.68,0-17.78-4.28-22.15-11.49-.91-1.51-3.91,4.08-7,7.15-5.19,5.16-11.08,9.42-11.08,6.18,0-14.37,11-25.27,24.53-25.27S153.13,216.47,153.13,230.83Z" transform="translate(-19.08 -147.93)"/><ellipse class="cls-10" cx="96.05" cy="90.2" rx="2.19" ry="3.29"/><ellipse class="cls-10" cx="123.24" cy="90.2" rx="2.19" ry="3.29"/><path class="cls-11" d="M133,297.82l-.46.38a8.29,8.29,0,0,1-3,1.66,5.67,5.67,0,0,1-2,.17,1.46,1.46,0,0,1-1.28-1.14c0-.16-.07-.32-.11-.53l-.16.21A3.45,3.45,0,0,1,124,300a3,3,0,0,1-2.19-.27,1.91,1.91,0,0,1-1-1.28c0-.07,0-.15-.06-.22l0-.08-.2.17a6.75,6.75,0,0,1-3.08,1.65,5,5,0,0,1-4.74-1.34,3.72,3.72,0,0,1-1-2.21A10,10,0,0,1,113,290a19.89,19.89,0,0,1,4.7-5.63,17.64,17.64,0,0,1,4.27-2.76,11.89,11.89,0,0,1,3.31-.95,2.71,2.71,0,0,1,1.22.09,1.3,1.3,0,0,1,.9,1,3.05,3.05,0,0,1-.31,2.17,6,6,0,0,1-1.79,2.14,1.66,1.66,0,0,1-1.39.41.7.7,0,0,1-.62-.52.82.82,0,0,1,.3-.9,3.39,3.39,0,0,1,.78-.35,4.47,4.47,0,0,1,.6-.13,1.9,1.9,0,0,0,1.51-2.17.9.9,0,0,0-.75-.67,4.6,4.6,0,0,0-2.91,1,17.58,17.58,0,0,0-3.22,3.22,18.84,18.84,0,0,0-3.23,5.69,10,10,0,0,0-.64,3.58,5,5,0,0,0,.44,2.16,2.18,2.18,0,0,0,3.63.54,6.91,6.91,0,0,0,1.08-1.62,15,15,0,0,1,1.1-1.94,8,8,0,0,1,3.29-2.69,5.77,5.77,0,0,1,1.79-.41,1.27,1.27,0,0,1,1.08.43l.18.2a3.94,3.94,0,0,1,.25-.45.36.36,0,0,1,.23-.15l1.85,0c.28,0,.37.1.33.38a1.46,1.46,0,0,1-.09.35c-.65,1.55-1.31,3.09-2,4.64a10.58,10.58,0,0,0-.36,1.18,1,1,0,0,0,0,.31c0,.52.24.72.77.7a3.47,3.47,0,0,0,1.92-.71c.48-.34.92-.73,1.37-1.11a.33.33,0,0,0,.08-.25c0-.55-.14-1.09-.15-1.63a11,11,0,0,1,1.1-5,16.73,16.73,0,0,1,4.76-6.13,6.8,6.8,0,0,1,1.64-1l.19-.07c.76-.2,1.18,0,1.2.85a5.33,5.33,0,0,1-.44,2.08,32.27,32.27,0,0,1-4,7.37c-.52.72-1.07,1.43-1.6,2.14a.44.44,0,0,0-.1.26,5.78,5.78,0,0,0,.69,2.58,3.61,3.61,0,0,0,2.06,1.6c.44.15.9.26,1.33.42s.57.46.26.9a5.84,5.84,0,0,1-2.46,1.93,12.8,12.8,0,0,1-4.9,1.12c-1.6.08-3.19,0-4.79-.12L124,304c-1.9-.06-3.79-.13-5.69-.17a22,22,0,0,0-4.67.34c-.84.17-1.65.43-2.48.65,0,0-.06,0-.1,0s-.15,0-.19,0a.19.19,0,0,1,0-.18,5.84,5.84,0,0,1,.62-.81,7.89,7.89,0,0,1,2.72-1.62,14.72,14.72,0,0,1,3.92-.87,36.89,36.89,0,0,1,5.5,0c1.29.07,2.57.11,3.86.18l4.19.23c.79,0,1.59,0,2.38.08a8,8,0,0,0,2.37-.19,6.18,6.18,0,0,0,.91-.37.35.35,0,0,0,.25-.38.52.52,0,0,0-.29-.3,6.59,6.59,0,0,0-.8-.18,5.59,5.59,0,0,1-2.26-1.12,4.77,4.77,0,0,1-1.16-1.3Zm-8.32.44,0,.05a3.82,3.82,0,0,0,.62-.27,1.63,1.63,0,0,0,.47-.46,6.75,6.75,0,0,0,.52-1c.53-1.21,1-2.43,1.57-3.64a.52.52,0,0,0-.32-.77,1.05,1.05,0,0,0-.84,0,3.37,3.37,0,0,0-1.08.8,8.14,8.14,0,0,0-1.78,3.48,2.64,2.64,0,0,0,0,1C123.89,298.12,124,298.22,124.66,298.27Zm10.75-4.49.15-.19a33.88,33.88,0,0,0,2.8-4.3c.62-1.15,1.19-2.33,1.76-3.51a2.68,2.68,0,0,0,.19-.85.41.41,0,0,0-.16-.32c-.06,0-.22,0-.3.09a7.35,7.35,0,0,0-1.44,1.51,24.54,24.54,0,0,0-2.16,3.7,7.57,7.57,0,0,0-.82,2.59A12.35,12.35,0,0,0,135.41,293.78Z" transform="translate(-19.08 -147.93)"/><polygon class="cls-6" points="91.76 267.33 90.57 219.79 99.44 223.74 98.23 267.33 91.76 267.33"/><polygon class="cls-6" points="122.88 267.83 124.07 217.73 115.2 221.89 116.41 267.83 122.88 267.83"/><path class="cls-12" d="M103.62,332.08,93,379.66s7.24-5.49,14-4,9.21,4,17.81,4a83,83,0,0,0,18-2.46s4.34-6.11,16.16.94l7.93,1.52-12.41-47.58S127,351.67,103.62,332.08Z" transform="translate(-19.08 -147.93)"/><path class="cls-9" d="M141,211.48s10.79-15,19.87-5.91,2.48,43.2,3.66,47.77,8.45,0,8.45,0-7.44,10.85-12.11,9.46-10.74-12.5-10.74-12.5S160.8,227.29,141,211.48Z" transform="translate(-19.08 -147.93)"/><path class="cls-13" d="M128.41,251.21a5.07,5.07,0,0,1-5-4.17,5.07,5.07,0,1,0,10,0A5.07,5.07,0,0,1,128.41,251.21Z" transform="translate(-19.08 -147.93)"/><g id="_Group_" data-name="&lt;Group&gt;"><path class="cls-10" d="M125,234.13a7.75,7.75,0,0,1-.9,5.88,8.16,8.16,0,0,0,.35-2.24,6.19,6.19,0,0,0-.88-3.84c-1.68-2.24-9.15-3.57-13.16-2.63a5.8,5.8,0,0,0-4.6,6.14h-2s-.44-3.07-3.07-3.07v-1.61l5.48-1.93S122.82,226.77,125,234.13Z" transform="translate(-19.08 -147.93)"/><path class="cls-14" d="M124.11,240a9.54,9.54,0,0,1-2.72,4.22,9.41,9.41,0,0,1-6,2.3,9.17,9.17,0,0,1-5.48-1.64,9.4,9.4,0,0,1-3-3.62,14.31,14.31,0,0,1-1.1-3.84,5.8,5.8,0,0,1,4.6-6.14c4-.94,11.48.39,13.16,2.63a6.19,6.19,0,0,1,.88,3.84,8.16,8.16,0,0,1-.35,2.24" transform="translate(-19.08 -147.93)"/><path class="cls-14" d="M105.83,237.44h-2s-.44-3.07-3.07-3.07v-1.61l5.48-1.93s16.55-4.06,18.75,3.3a7.75,7.75,0,0,1-.9,5.88h0" transform="translate(-19.08 -147.93)"/></g><g id="_Group_2" data-name="&lt;Group&gt;"><path class="cls-10" d="M132.26,234.13a7.75,7.75,0,0,0,.9,5.87,8.2,8.2,0,0,1-.35-2.24,6.2,6.2,0,0,1,.88-3.84c1.68-2.24,9.15-3.57,13.16-2.63a5.8,5.8,0,0,1,4.6,6.14h2s.44-3.07,3.07-3.07v-1.61L151,230.83S134.45,226.77,132.26,234.13Z" transform="translate(-19.08 -147.93)"/><path class="cls-14" d="M133.16,240a9.56,9.56,0,0,0,2.72,4.23,9.41,9.41,0,0,0,6,2.3,9.17,9.17,0,0,0,5.48-1.64,9.4,9.4,0,0,0,3-3.62,14.31,14.31,0,0,0,1.1-3.84,5.8,5.8,0,0,0-4.6-6.14c-4-.94-11.48.39-13.16,2.63a6.2,6.2,0,0,0-.88,3.84,8.2,8.2,0,0,0,.35,2.24" transform="translate(-19.08 -147.93)"/><path class="cls-15" d="M133.16,240h0" transform="translate(-19.08 -147.93)"/><path class="cls-14" d="M133.15,240h0" transform="translate(-19.08 -147.93)"/><path class="cls-15" d="M151.44,237.44h2s.44-3.07,3.07-3.07v-1.61L151,230.83s-16.56-4.06-18.75,3.3a7.75,7.75,0,0,0,.9,5.87" transform="translate(-19.08 -147.93)"/></g><path class="cls-10" d="M132.53,237.25a1,1,0,0,1-1-.88,2.68,2.68,0,0,0-2.66-1.94c-1.47-.09-2.89.7-3.16,1.77a1,1,0,1,1-1.94-.48c.51-2,2.75-3.43,5.23-3.28a4.61,4.61,0,0,1,4.52,3.7,1,1,0,0,1-.87,1.11Z" transform="translate(-19.08 -147.93)"/></svg>