<svg id="Layer_1" data-name="Layer 1" xmlns="http://www.w3.org/2000/svg" viewBox="0 0 175.22 480.73"><defs><style>.cls-1{fill:#f9faf6;}.cls-2{fill:#e3d5a9;}.cls-3{fill:#030303;}.cls-4{fill:#e9987c;}.cls-5{fill:#231f20;}.cls-6,.cls-7{fill:none;stroke:#231f20;stroke-miterlimit:10;}.cls-6{stroke-width:2px;}.cls-7{stroke-linecap:round;stroke-width:4px;}.cls-8{fill:#434443;}</style></defs><title>Me</title><path class="cls-1" d="M454.58,426.3" transform="translate(-271.7 -75.27)"/><polygon class="cls-1" points="126.49 147.53 160.09 190.74 175.22 178.87 119.07 120.13 104.24 119.47 126.49 147.53"/><polygon class="cls-1" points="56.69 167.1 42.01 219.83 23.51 214.59 53.15 138.93 66.62 132.69 56.69 167.1"/><polygon class="cls-2" points="23.51 214.59 0 292.42 0 311.38 13.79 305.64 13.79 279.21 18.38 294.72 26.43 290.7 16.09 271.74 42.01 219.83 23.51 214.59"/><polygon class="cls-2" points="160.09 190.74 144.74 240.14 156.84 266.57 175.22 262.99 156.84 243.02 175.22 178.87 160.09 190.74"/><polygon class="cls-2" points="58.6 419.38 58.6 445.24 38.49 463.33 48.54 466.78 73.95 449.55 71.54 419.38 58.6 419.38"/><path class="cls-3" d="M310.19,538.6s-18.45,9.91-17.48,16.37,58.47-19.82,58.47-19.82V521.8l-6-3.45.52,6.46-25.41,17.23Z" transform="translate(-271.7 -75.27)"/><polygon class="cls-2" points="58.6 419.38 58.6 445.24 38.49 463.33 48.54 466.78 73.95 449.55 71.54 419.38 58.6 419.38"/><path class="cls-3" d="M310.19,538.6s-18.45,9.91-17.48,16.37,58.47-19.82,58.47-19.82V521.8l-6-3.45.52,6.46-25.41,17.23Z" transform="translate(-271.7 -75.27)"/><polygon class="cls-2" points="121.04 419.3 121.04 445.16 141.16 463.25 131.1 466.7 105.69 449.46 108.1 419.3 121.04 419.3"/><path class="cls-3" d="M412.86,538.52s18.45,9.91,17.48,16.37-58.47-19.82-58.47-19.82V521.72l6-3.45-.52,6.46L402.8,542Z" transform="translate(-271.7 -75.27)"/><polygon class="cls-2" points="121.04 419.3 121.04 445.16 141.16 463.25 131.1 466.7 105.69 449.46 108.1 419.3 121.04 419.3"/><path class="cls-3" d="M412.86,538.52s18.45,9.91,17.48,16.37-58.47-19.82-58.47-19.82V521.72l6-3.45-.52,6.46L402.8,542Z" transform="translate(-271.7 -75.27)"/><path class="cls-1" d="M416.86,322.31c0-78.18-22.82-141.55-51-141.55s-51,63.38-51,141.55" transform="translate(-271.7 -75.27)"/><path class="cls-3" d="M324.17,101.37s-35.92,77.74-7.41,105.57,26.06,11.72,26.06,11.72l2.83-139Z" transform="translate(-271.7 -75.27)"/><path class="cls-3" d="M407.53,101.37s35.92,77.74,7.41,105.57-26.06,11.72-26.06,11.72L386,79.65Z" transform="translate(-271.7 -75.27)"/><ellipse class="cls-2" cx="94.15" cy="64.03" rx="49.09" ry="52.91"/><path class="cls-4" d="M376.57,164.74c0,6.71-4.8,12.16-10.72,12.16s-10.72-5.44-10.72-12.16" transform="translate(-271.7 -75.27)"/><path class="cls-3" d="M414.88,125.81c0,28.73,9.37-3.67-17.74-3.67-17.37,0-35.57-8.56-44.29-23-1.82-3-7.82,8.16-14,14.3-10.37,10.32-22.16,18.84-22.16,12.36,0-28.73,22-50.54,49.07-50.54S414.88,97.08,414.88,125.81Z" transform="translate(-271.7 -75.27)"/><path class="cls-2" d="M380.53,194.74c0,9.5-14.67,17.2-14.67,17.2s-14.67-7.7-14.67-17.2,6.57-2.53,14.67-2.53S380.53,185.24,380.53,194.74Z" transform="translate(-271.7 -75.27)"/><path class="cls-5" d="M358.65,132.41s1.79,5.21-1.8,11.76a16.46,16.46,0,0,0,.7-4.49c0-1.87.09-5.21-1.75-7.67-3.36-4.49-18.29-7.13-26.31-5.26a11,11,0,0,0-6.8,4.22c-1.73,2.44-2.89,5.21-2.41,8.06h-3.95s-.88-6.14-6.14-6.14v-3.21l11-3.86S354.27,117.69,358.65,132.41Z" transform="translate(-271.7 -75.27)"/><path class="cls-6" d="M320.28,139c-.48-2.85.68-5.62,2.41-8.06a11,11,0,0,1,6.8-4.22c8-1.87,23,.78,26.31,5.26,1.84,2.46,1.79,5.81,1.75,7.67a16.46,16.46,0,0,1-.7,4.49,19.11,19.11,0,0,1-5.43,8.45,18.82,18.82,0,0,1-12.06,4.6,18.35,18.35,0,0,1-11-3.29,18.78,18.78,0,0,1-5.92-7.24A28.5,28.5,0,0,1,320.28,139Z" transform="translate(-271.7 -75.27)"/><path class="cls-6" d="M320.28,139h-3.95s-.88-6.14-6.14-6.14v-3.21l11-3.86s33.11-8.11,37.5,6.61c0,0,1.79,5.21-1.8,11.76" transform="translate(-271.7 -75.27)"/><path class="cls-5" d="M409.09,131c1.73,2.44,2.89,5.21,2.41,8.06h3.95s.87-6.14,6.14-6.14v-3.21l-11-3.86s-33.11-8.11-37.5,6.61c0,0-1.8,5.2,1.8,11.75a16.54,16.54,0,0,1-.7-4.48c0-1.87-.09-5.21,1.76-7.67,3.36-4.49,18.29-7.13,26.31-5.26A11,11,0,0,1,409.09,131Z" transform="translate(-271.7 -75.27)"/><path class="cls-6" d="M374.94,144.17a19.11,19.11,0,0,0,5.43,8.45,18.82,18.82,0,0,0,12.06,4.6,18.35,18.35,0,0,0,11-3.29,18.81,18.81,0,0,0,5.92-7.24,28.74,28.74,0,0,0,2.19-7.68c.48-2.85-.68-5.62-2.41-8.06a11,11,0,0,0-6.8-4.22c-8-1.87-23,.78-26.31,5.26-1.85,2.46-1.79,5.81-1.76,7.67a16.54,16.54,0,0,0,.7,4.48" transform="translate(-271.7 -75.27)"/><path class="cls-6" d="M411.51,139h3.95s.87-6.14,6.14-6.14v-3.21l-11-3.86s-33.11-8.11-37.5,6.61c0,0-1.8,5.2,1.8,11.75h0" transform="translate(-271.7 -75.27)"/><path class="cls-7" d="M358.11,136c.78-3.13,4.45-5.3,8.38-5,3.75.24,6.82,2.62,7.18,5.64" transform="translate(-271.7 -75.27)"/><ellipse class="cls-5" cx="67.16" cy="65.13" rx="4.38" ry="6.59"/><ellipse class="cls-5" cx="121.55" cy="65.13" rx="4.38" ry="6.59"/><path class="cls-1" d="M314.94,322.31H416.86s-52.23,36.62-101.92,0" transform="translate(-271.7 -75.27)"/><path class="cls-8" d="M314.94,322.31l10.77,172.35h25.47l7.92-137.88,17.47,137.88h20.09l20.2-172.35S365.92,355.92,314.94,322.31Z" transform="translate(-271.7 -75.27)"/></svg>