<svg xmlns="http://www.w3.org/2000/svg" viewBox="0 0 981.5 462.48"><defs><style>.cls-1{fill:#eeebdf;}.cls-2{fill:#f9b1a0;}.cls-3{fill:#e5e5dc;}.cls-4{fill:#ccc53a;}.cls-5{fill:#c4c683;}.cls-6{fill:#f9faf6;}.cls-7{fill:#030303;}.cls-8{fill:#434443;}.cls-17,.cls-18,.cls-9{fill:none;stroke-miterlimit:10;}.cls-9{stroke:#c4c683;stroke-width:3px;}.cls-18,.cls-9{stroke-linecap:round;}.cls-10{fill:#b3b270;}.cls-11{fill:#c9c8bf;}.cls-12{fill:#6a6b6a;}.cls-13{fill:#989b98;}.cls-14{fill:#e3d5a9;}.cls-15{fill:#e9987c;}.cls-16{fill:#231f20;}.cls-17,.cls-18{stroke:#231f20;}.cls-17{stroke-width:2px;}.cls-18{stroke-width:4px;}</style></defs><title>grad</title><g id="Layer_2" data-name="Layer 2"><rect class="cls-1" width="981.5" height="462.48"/><path class="cls-2" d="M276.81,471.4c-2.2,2.22-3.39,2.44-5.74.26a8.05,8.05,0,0,0-5.39-2c-7.61-.55-15.22-1.22-22.83-1.82-5.71-.45-11.42-.87-17.13-1.32-6-.48-12.07-1-18.1-1.46-4.53-.34-9.07-.56-13.6-1a3.37,3.37,0,0,1-2.32-1.25c-.28-.44.37-1.52.69-2.27.51-1.19,1.44-2.32,1.56-3.54.09-.89-.83-1.88-1.31-2.83a17.71,17.71,0,0,0-2.22,1.25c-.45.34-.63,1.12-1.1,1.35a2.9,2.9,0,0,1-2.12.29c-.41-.18-.73-1.25-.61-1.82a6.81,6.81,0,0,1,1.23-2.42c1.5-2.09,3.09-4.11,4.61-6.18a6.76,6.76,0,0,0,.08-8.47,71.88,71.88,0,0,0-5.41-6.27c-1.28-1.42-2.66-2.75-4-4.16a7.42,7.42,0,0,1-1.26-8.93c1.44-3,.24-4.73-3.08-5-1.85-.16-3.64-.93-5.5-1.21a27.79,27.79,0,0,0-5-.23,29.6,29.6,0,0,0-3.7.59c-1.3.21-2.09-.24-2-1.66a31.24,31.24,0,0,1,.36-4.33,3,3,0,0,1,1.26-1.57c3-2.12,3.21-4.84.45-7.19a54.47,54.47,0,0,0-6.12-4.69,5.94,5.94,0,0,0-3.68-.75c-3.69.5-3.88.5-5.42-2.81a3.88,3.88,0,0,0-.7-.93c-2.18-2.37-4.27-4.82-6.58-7.05a43.7,43.7,0,0,0-4.52-3.26,30.46,30.46,0,0,1-4.15-3.29,8.3,8.3,0,0,0-8.25-2.55,5.55,5.55,0,0,1-3.17-.61c-2.44-1.16-4.75-2.58-7.18-3.77a12.62,12.62,0,0,0-4.25-1.54c-4.18-.35-6.22-3-7.7-6.45-1-2.36-.86-3.73,1-5.51a3.28,3.28,0,0,0,1.29-3.39,9.42,9.42,0,0,1,1.28-6.46,8.34,8.34,0,0,0,.55-7.25,4.71,4.71,0,0,0-1.72-2.31c-1.66-1-1.61-2.26-1.16-3.74.27-.88.66-1.72,1-2.57a4.5,4.5,0,0,0-.91-4.78,8.47,8.47,0,0,0-1.7-1.65c-2.57-1.8-4.05-4-3.36-7.34.35-1.7-.7-2.62-2.32-2.75a2.59,2.59,0,0,1-2.67-2.84c.49-5.3-2.35-9.52-4.37-14a109.44,109.44,0,0,0-6.4-11.77c-2.15-3.52-2.3-4.1,0-7.71a2.17,2.17,0,0,0,.26-1.49c-.72-3.29-2.45-5.81-5.71-7-2.35-.89-2.51-1.49-1.88-4,.74-2.91,1.18-5.89,1.7-8.84a2.62,2.62,0,0,0-.17-1.55c-1.36-2.62-.9-4.94.46-7.52.91-1.72.94-3.93,1.21-5.94.18-1.3,0-2.64.11-4a7.75,7.75,0,0,1,6.35-7.39,2.06,2.06,0,0,1,1.61,1,5.67,5.67,0,0,1,.38,2.31c.16,3,.16,6.07.47,9.09a12.37,12.37,0,0,0,1.39,3.58,14.66,14.66,0,0,0,1.49,2.72c.44.6,1.19,1.4,1.76,1.37A1.94,1.94,0,0,0,95,246.69a10.43,10.43,0,0,0-.7-3.06,38.33,38.33,0,0,1-3-17.57,4,4,0,0,0-1.18-3.59,2.46,2.46,0,0,1-.44-2.26,2.41,2.41,0,0,1,2-1.15c4.67.65,9.68,0,13.65,3.54a4.62,4.62,0,0,0,5.71.49,7.44,7.44,0,0,0,3.77-6c.16-1.62-1.37-2.08-2.63-2a43.72,43.72,0,0,0-7.41,1A17.21,17.21,0,0,1,93,215c-2.53-1.18-4.45-.6-5.79,1.84a34.88,34.88,0,0,0-1.44,3.67c-1,2.42-3.09,3.9-4.93,3.5-2-.44-3.32-2.33-3.39-5,0-.33.11-.74,0-1-.53-.83-1-2-1.79-2.25-.56-.21-1.8.57-2.3,1.23-1.5,2-3,2.07-3.69-.28a15.43,15.43,0,0,1-.5-6.71c.43-2.76,2.4-3.7,5.16-3.18.57.11,1.15.16,2,.28-.81-3-1.55-5.72-2.34-8.45a1,1,0,0,0-.7-.61c-2.12-.22-2.29-1.95-3-3.45a28.75,28.75,0,0,0-3.48-5.61A8.8,8.8,0,0,1,65,184.84a21.21,21.21,0,0,0-2.16-5.78c-.63-1.24-1.84-1.28-3.07-.53s-5.33-.24-6-1.65a1.51,1.51,0,0,1,.24-1.37,5.67,5.67,0,0,1,1.94-1.33c1.86-.72,3.14-1.77,3.29-4,0-.55.75-1.19,1.31-1.54,2.41-1.47,3.13-2.67,2.17-5.2a6.12,6.12,0,0,1,1-6.4c4.91-6.59,4.35-13.78,2.06-21.1-.12-.38-.46-.74-.43-1.09.25-3.53-2.14-6-3.62-8.77a9.06,9.06,0,0,1-.41-7.83,28.41,28.41,0,0,1,9.49-12.69c3.15-2.33,4.17-5.22,4.23-8.8a11,11,0,0,1,.05-1.38c.31-2.11.52-3.87,2.76-5.44,3-2.07,3.65-6,4.27-9.5.25-1.42.48-2.85.73-4.28.47-2.62.43-5.1-1.58-7.21a5.76,5.76,0,0,1-1.24-2.23,2.79,2.79,0,0,1,0-2.14c.39-.49,1.37-.57,2.11-.7a25.78,25.78,0,0,1,3.18-.36,5.65,5.65,0,0,1,1.9.19q34,10.37,68,20.78L195.2,96.69c.87.26,1.71.6,2.77,1-1.21,4.11-2.37,8.07-3.53,12q-11.11,37.72-22.2,75.44c-.83,2.82-1.1,5.62,2,7.58-1.22,2-2.29,4.07-3.64,5.92a13.55,13.55,0,0,0-2.63,8.09,6.69,6.69,0,0,0,1.29,3.21c5.58,8.88,11.09,17.81,16.84,26.58q49.29,75.23,98.69,150.39a18.61,18.61,0,0,0,2.4,2.86c1.47,1.48,2.5,3.18,2.2,5.28-.71,5.08,1.67,9.37,3.4,13.82a5.45,5.45,0,0,0,1.74,2.08c3.47,2.75,3,6.74-1,8.61-4.19,2-7.06,4.89-7.38,9.88a5.64,5.64,0,0,1-4.54,5.37,2.31,2.31,0,0,0-2,2.24,12.86,12.86,0,0,1-2.69,6.21,45,45,0,0,0-4.21,8c-.78,1.77-.24,3.59.74,5.28,2.08,3.59,4.16,7.19,6,10.89a3.88,3.88,0,0,1-.18,3.09C278.93,471.05,277.65,471.11,276.81,471.4Z" transform="translate(44.5 -56.02)"/></g><g id="Layer_3" data-name="Layer 3"><rect class="cls-3" x="693.79" y="92.65" width="124.71" height="153.33"/><rect class="cls-4" x="726.16" y="85.16" width="55.88" height="5.65" rx="2.33" ry="2.33"/><rect class="cls-4" x="739.49" y="77.89" width="27.94" height="5.65" rx="2.33" ry="2.33"/><rect class="cls-5" x="748.53" y="54.57" width="10.22" height="21.5" rx="4.22" ry="4.22"/><rect class="cls-5" x="721.71" y="247.49" width="64.79" height="10.39" rx="2.33" ry="2.33"/></g><g id="Layer_1" data-name="Layer 1"><path class="cls-6" d="M216.79,360.89" transform="translate(44.5 -56.02)"/><ellipse class="cls-7" cx="427.25" cy="221.42" rx="41.67" ry="14.87" transform="translate(2.81 57.41) rotate(-14.43)"/><polygon class="cls-7" points="431.39 175.78 427.52 166.73 508.89 143.11 512.1 155.02 431.39 175.78"/><path class="cls-8" d="M365,218.13l51.29-31.36a3.64,3.64,0,0,1,1.9-.53h61.75a3.64,3.64,0,0,1,1.77,6.81L430.2,221.75a3.64,3.64,0,0,1-1.62.46l-61.44,2.59a3.64,3.64,0,0,1-2.17-6.66Z" transform="translate(44.5 -56.02)"/><path class="cls-9" d="M422.5,204.35s33-6.32,44.76,22.83,16.22,15.41,16.22,15.41" transform="translate(44.5 -56.02)"/><circle class="cls-5" cx="465.99" cy="148.12" r="3.04"/><path class="cls-5" d="M492,234.41c-2.51,5.38-6.28,8.92-8.41,7.93s-1.83-6.16.68-11.54" transform="translate(44.5 -56.02)"/><path class="cls-3" d="M450.25,240.61l-26.32,34.08-35.37,33.67s6.53,10,15,11.75l28.19-38.17,33.67-28.72S460.45,239.45,450.25,240.61Z" transform="translate(44.5 -56.02)"/><path class="cls-10" d="M427.68,276.51c-1.8,1.9-7.21-.3-12.09-4.91s1.36-1.64,3.16-3.54-1.52-8,3.36-3.35S429.48,274.61,427.68,276.51Z" transform="translate(44.5 -56.02)"/><path class="cls-10" d="M427.15,275.88c-1.9,1.8.3,7.21,4.91,12.09s1.64-1.36,3.54-3.16,8,1.52,3.35-3.36S429,274.08,427.15,275.88Z" transform="translate(44.5 -56.02)"/><circle class="cls-5" cx="472.58" cy="220.65" r="3.66"/><ellipse class="cls-11" cx="396.82" cy="313.71" rx="3.03" ry="9.5" transform="translate(-39.99 413.32) rotate(-56.25)"/></g><g id="Layer_4" data-name="Layer 4"><path class="cls-4" d="M424.59,133.68a6.27,6.27,0,0,0-12.54,0l6.27,11.62Z" transform="translate(44.5 -56.02)"/><path class="cls-4" d="M370.61,147.26a6.27,6.27,0,1,0-10.86,6.27L371,160.46Z" transform="translate(44.5 -56.02)"/><path class="cls-4" d="M330.65,186a6.27,6.27,0,1,0-6.27,10.86l13.2.38Z" transform="translate(44.5 -56.02)"/><path class="cls-4" d="M315.42,239.56a6.27,6.27,0,0,0,0,12.54L327,245.83Z" transform="translate(44.5 -56.02)"/><path class="cls-4" d="M329,293.55a6.27,6.27,0,0,0,6.27,10.86l6.93-11.24Z" transform="translate(44.5 -56.02)"/><path class="cls-4" d="M367.76,333.5a6.27,6.27,0,1,0,10.86,6.27l.38-13.2Z" transform="translate(44.5 -56.02)"/><path class="cls-4" d="M421.31,348.73a6.27,6.27,0,0,0,12.54,0l-6.27-11.62Z" transform="translate(44.5 -56.02)"/><path class="cls-4" d="M475.29,335.15a6.27,6.27,0,0,0,10.86-6.27l-11.24-6.93Z" transform="translate(44.5 -56.02)"/><path class="cls-4" d="M515.25,296.39a6.27,6.27,0,0,0,6.27-10.86l-13.2-.38Z" transform="translate(44.5 -56.02)"/><path class="cls-4" d="M530.48,242.85a6.27,6.27,0,0,0,0-12.54l-11.62,6.27Z" transform="translate(44.5 -56.02)"/><path class="cls-4" d="M516.89,188.86A6.27,6.27,0,1,0,510.62,178l-6.93,11.24Z" transform="translate(44.5 -56.02)"/><path class="cls-4" d="M478.13,148.9a6.27,6.27,0,1,0-10.86-6.27l-.38,13.2Z" transform="translate(44.5 -56.02)"/><line class="cls-7" x1="749.5" y1="173.4" x2="749.5" y2="194.98"/><line class="cls-12" x1="790.26" y1="191.08" x2="770.87" y2="191.08"/><path class="cls-5" d="M662,449.38l-1.74-3.1c-1.54-2.74-1.88-8-.75-11.79l34.84-116c1.13-3.75,3.31-4.57,4.84-1.83l1.74,3.1c1.54,2.74,1.88,8,.75,11.79l-34.84,116C665.73,451.3,663.55,452.12,662,449.38Z" transform="translate(44.5 -56.02)"/><path class="cls-5" d="M754.34,449.38l1.74-3.1c1.54-2.74,1.88-8,.75-11.79L722,318.49c-1.13-3.75-3.31-4.57-4.84-1.83l-1.74,3.1c-1.54,2.74-1.88,8-.75,11.79l34.84,116C750.62,451.3,752.8,452.12,754.34,449.38Z" transform="translate(44.5 -56.02)"/><rect class="cls-5" x="720.46" y="314.28" width="64.79" height="15.74" rx="2.33" ry="2.33"/><path class="cls-7" d="M729.63,272.17c-.06.39.36.28.43.35C730,271.85,729.52,272.17,729.63,272.17Z" transform="translate(44.5 -56.02)"/><polygon class="cls-7" points="772.96 209.91 773.14 210 772.59 209.17 772.96 209.91"/><path class="cls-7" d="M727.15,260.38c-.51.71.71,1.93.69,3l-.12.2.66.33A34.67,34.67,0,0,1,727.15,260.38Z" transform="translate(44.5 -56.02)"/><path class="cls-7" d="M727.54,257c-.19.28-.47-.53.19.71a1.07,1.07,0,0,1,0-.15C727.7,257.41,727.64,257.25,727.54,257Z" transform="translate(44.5 -56.02)"/><path class="cls-7" d="M727.75,257.53c.24.57.08-.46,0,0Z" transform="translate(44.5 -56.02)"/><path class="cls-7" d="M726.5,255l.55.63c.08-.22-.18-.89,0-.7C726.63,254.22,726.55,254.45,726.5,255Z" transform="translate(44.5 -56.02)"/><path class="cls-7" d="M725.71,254.53l.27.32C726,254.76,726,254.65,725.71,254.53Z" transform="translate(44.5 -56.02)"/><path class="cls-7" d="M726.54,255.56l-.56-.71c-.06.15-.26.26.24.33C726,255.21,726.25,255.28,726.54,255.56Z" transform="translate(44.5 -56.02)"/><path class="cls-7" d="M726.64,256.06c0,.47.16,1-.37.4C726.94,257.82,727.33,257.43,726.64,256.06Z" transform="translate(44.5 -56.02)"/><path class="cls-7" d="M726.36,260.34l0,.61.37.41C726.54,261.15,726.56,260.24,726.36,260.34Z" transform="translate(44.5 -56.02)"/><path class="cls-7" d="M724.57,250.4c-.16,0-.22.43-.36.58l.43.43C724.58,251.09,724.4,250.54,724.57,250.4Z" transform="translate(44.5 -56.02)"/><path class="cls-7" d="M724.2,251l-.66-.63C723.91,251,724.08,251.1,724.2,251Z" transform="translate(44.5 -56.02)"/><path class="cls-7" d="M724.93,254.74c.37.34.73.7,1.09,1.06q-.6-.67-1.22-1.31Z" transform="translate(44.5 -56.02)"/><polygon class="cls-7" points="767.39 191.51 767.95 191.75 767.04 191.28 767.39 191.51"/><path class="cls-7" d="M721.69,245.72c.44.15.15-.68.51-.46a4.25,4.25,0,0,0-1.28-1A2.66,2.66,0,0,1,721.69,245.72Z" transform="translate(44.5 -56.02)"/><path class="cls-7" d="M720.23,243.81a5,5,0,0,0,.69.45A2.53,2.53,0,0,0,720.23,243.81Z" transform="translate(44.5 -56.02)"/><path class="cls-7" d="M722.87,249a.94.94,0,0,0,0-.81l-.19.51Z" transform="translate(44.5 -56.02)"/><path class="cls-7" d="M722.7,248.77v0l-.36-.64Z" transform="translate(44.5 -56.02)"/><path class="cls-7" d="M722.91,249.12l0-.07S722.85,249.12,722.91,249.12Z" transform="translate(44.5 -56.02)"/><path class="cls-7" d="M724.26,252.55c-.45-.34-1.18-1.13-1-.07C723.68,252.66,723.58,252,724.26,252.55Z" transform="translate(44.5 -56.02)"/><path class="cls-7" d="M722.67,249.75l.37.84c.09-.07.15-.3.38-.14Z" transform="translate(44.5 -56.02)"/><polygon class="cls-7" points="766.83 193.42 767.17 193.73 767.03 193.43 766.83 193.42"/><path class="cls-7" d="M720.73,245.32a3.51,3.51,0,0,1-.9-1,10.17,10.17,0,0,0,.74,1.37C720.72,245.72,721,245.77,720.73,245.32Z" transform="translate(44.5 -56.02)"/><path class="cls-7" d="M721.67,247l-.07-.06C721.6,247,721.61,247,721.67,247Z" transform="translate(44.5 -56.02)"/><polygon class="cls-7" points="761.76 184.44 761.74 184.54 761.81 184.51 761.76 184.44"/><path class="cls-7" d="M720.55,245.84a1.06,1.06,0,0,0,.58.63,7.59,7.59,0,0,1-.56-.74C720.5,245.73,720.47,245.75,720.55,245.84Z" transform="translate(44.5 -56.02)"/><path class="cls-7" d="M719.34,242.82a5.34,5.34,0,0,0,.17.68C719.51,243.27,719.47,242.82,719.34,242.82Z" transform="translate(44.5 -56.02)"/><path class="cls-7" d="M721.63,246.77l0,0C721.69,246.65,721.66,246.69,721.63,246.77Z" transform="translate(44.5 -56.02)"/><path class="cls-7" d="M721.63,246.77a2.33,2.33,0,0,0-.5-.3,3.79,3.79,0,0,0,.47.47A.59.59,0,0,1,721.63,246.77Z" transform="translate(44.5 -56.02)"/><path class="cls-7" d="M714.19,240.78c.37-.16,1.22.48,1.35,1.44.72.55,1.5-.64,1.7-1.66-.16.07-.29.16-1-.44,0,.37.65,1.9-.06,1.48-.81-.86-.41-.87-.54-1.46-.15.67-1.41-.84-1.88-.24l.77.72C714.48,240.7,714.12,240.48,714.19,240.78Z" transform="translate(44.5 -56.02)"/><path class="cls-7" d="M718.12,242l.24.27a3.6,3.6,0,0,1-.24-1.34c-.49-.39-.68-.41-.81-.38l.93,1.51Z" transform="translate(44.5 -56.02)"/><path class="cls-7" d="M719.26,243.6c-.52,0-1.15-.62-1.24.08.61.87.71.42,1.22.85-1-1.38.47.28,0-.89a6,6,0,0,1,.61.72,8.54,8.54,0,0,1-.33-.85v0h0c0,.09,0,.13,0,0l0,0a.45.45,0,0,1-.18,0c-.2-.46.05-.13.18,0l.06,0h0l-1.15-1.3A7.86,7.86,0,0,0,719.26,243.6Z" transform="translate(44.5 -56.02)"/><path class="cls-7" d="M722,252.11a.11.11,0,0,1,.06-.1C722,251.95,721.9,251.93,722,252.11Z" transform="translate(44.5 -56.02)"/><path class="cls-7" d="M721.87,251.37a.8.8,0,0,1,.48.46c.06.37-.18.1-.3.18.22.16.68.61.5-.17l-.11-.08c-.22-.67-.2-1.73-.09-1.65A3.06,3.06,0,0,0,721.87,251.37Z" transform="translate(44.5 -56.02)"/><path class="cls-7" d="M720.51,247.48l-1-1.1.08.82.17-.15C720.17,247.79,720.31,247.49,720.51,247.48Z" transform="translate(44.5 -56.02)"/><polygon class="cls-7" points="761.85 184.18 762.33 184.09 761.35 183.76 761.85 184.18"/><polygon class="cls-7" points="760.8 182.68 761.17 182.52 760.71 182.24 760.8 182.68"/><path class="cls-7" d="M712.4,184.13l.4-.24A2.19,2.19,0,0,0,712.4,184.13Z" transform="translate(44.5 -56.02)"/><path class="cls-7" d="M708.89,185.46v.22C709,185.48,709.07,185.37,708.89,185.46Z" transform="translate(44.5 -56.02)"/><path class="cls-7" d="M736.52,221.48c.68.27,1.48.72,1.33.29l-.26-.4A2.07,2.07,0,0,1,736.52,221.48Z" transform="translate(44.5 -56.02)"/><path class="cls-7" d="M724.79,202.56l.1.2.55-.19Z" transform="translate(44.5 -56.02)"/><path class="cls-7" d="M723.61,204l-.6-.61A3.55,3.55,0,0,0,723.61,204Z" transform="translate(44.5 -56.02)"/><path class="cls-7" d="M729.32,181.63l.45-.47C729,181.21,729.37,181.41,729.32,181.63Z" transform="translate(44.5 -56.02)"/><path class="cls-7" d="M711.41,225.34a4.14,4.14,0,0,0,.91-.2C711.8,225.1,711.3,225,711.41,225.34Z" transform="translate(44.5 -56.02)"/><path class="cls-7" d="M712.64,188.87c.2-.14.27-.26.24-.35C712.66,188.67,712.55,188.79,712.64,188.87Z" transform="translate(44.5 -56.02)"/><path class="cls-7" d="M713.43,224.74l-.25,0a4.65,4.65,0,0,1-.86.44A1.16,1.16,0,0,0,713.43,224.74Z" transform="translate(44.5 -56.02)"/><path class="cls-7" d="M698,166.14l-.12-.08C697.89,166.11,697.95,166.13,698,166.14Z" transform="translate(44.5 -56.02)"/><path class="cls-7" d="M681.6,158.74a6.91,6.91,0,0,1,.73.06A2.12,2.12,0,0,0,681.6,158.74Z" transform="translate(44.5 -56.02)"/><path class="cls-7" d="M712.71,232.38c.2.32.07,0,0,0Z" transform="translate(44.5 -56.02)"/><path class="cls-7" d="M712.12,234.84a.27.27,0,0,0-.26,0A.34.34,0,0,1,712.12,234.84Z" transform="translate(44.5 -56.02)"/><path class="cls-7" d="M716.48,221.3h0C716.38,221.23,716.4,221.25,716.48,221.3Z" transform="translate(44.5 -56.02)"/><path class="cls-7" d="M712.81,233a2.75,2.75,0,0,0-.12-.49A2.83,2.83,0,0,0,712.81,233Z" transform="translate(44.5 -56.02)"/><path class="cls-7" d="M713,232.81c0,.12.09.22.13.31S713.18,233.06,713,232.81Z" transform="translate(44.5 -56.02)"/><path class="cls-7" d="M712.44,231.93a3.15,3.15,0,0,1,.25.56c0-.08,0-.12,0-.11Z" transform="translate(44.5 -56.02)"/><path class="cls-7" d="M728.57,175.18l-.06-.07C728.08,175.11,728.25,175.16,728.57,175.18Z" transform="translate(44.5 -56.02)"/><path class="cls-7" d="M739.4,214.69h0v0Z" transform="translate(44.5 -56.02)"/><path class="cls-7" d="M738.65,214.31c.7,0,.79.2.79.38a6.47,6.47,0,0,0,1.28-.47A6.86,6.86,0,0,0,738.65,214.31Z" transform="translate(44.5 -56.02)"/><path class="cls-7" d="M719.94,182.59l-1.07-.28c1.17-.77,2.12-.65,1.08-1.09,0,.69-1,.8-2,1s-2,.39-2,1.08l-.74-.15c.2,0,.22-.11.41-.13-1.47-.39-.79,1.17-2.51,1.38-.61.07-1.08,0-.72-.27l-1.21.73c-.39.1-.37-.16,0-.25-.32.11-.67.27-1,.43l-.62.31q-.34.18-.65.38v0a10.56,10.56,0,0,0-.92,1.6c-.61.39.12-.34-.13-.32a4.41,4.41,0,0,0-.6,1.4c-.28.2-.39,0-.33-.4a2.56,2.56,0,0,1,.81-1.33c-1.07.11-1.26.55-1.4,1.13s-.35,1.34-.65,3.08a5.84,5.84,0,0,1-.07-1.68,2.46,2.46,0,0,0-.68,1.87,10.9,10.9,0,0,0,.43,2.75,6.92,6.92,0,0,1,0-2.12c.2-.72.49-1,.79-.15a2.76,2.76,0,0,0,.9,1.95c-.21.11-.17.37,0,.73a5.94,5.94,0,0,0,.83,1l-.53.37c.87.69,1.05.37,1.68.56a1.9,1.9,0,0,1,.68,1.79c1.37,1.05-.49-1.27,1.2-.3a6.93,6.93,0,0,0,3.37,1.6c.66.64-.33.26-.14.58l.94-.06c.16.1,0,.21,0,.26.68.14.36-.53,1.35-.19.57-.48,1.39,1.9,2.89,1.77.2.3-.31.28-.34.55a11.07,11.07,0,0,0,3.09.32l.9.91c-.58-.82.68-.83,1.78-.81a8.14,8.14,0,0,0-.45-.82l1.57.4c.12.18-.12.3-.47.43h.33c.4.46,0,.66-.55.8l-.33-.61c-.52.17-1,.4-1.13.77a1.35,1.35,0,0,1,.54.07c-.14,0-.24.1-.22.18s.23,0,.53,0v.8l.2-.21,1.62,1.32c1.62,0,3.25-.32,5.43.6-.77.16-.54.68-.88,1.19-.22-.88-1.67-.65-2.67-1.32.52.35.26.55.07.57.72.15,1.43.33,2.14.51-.3.42.2.55.57,1,.15-1.08,1.68.25,2.57.47-.14.31-.49.47-1.33-.14.57,1.22,1.89-.17,2.47,1-.22-.14-.3-.26-.48-.18.68.07,1.69,1.16,1.24,1.19l-.2-.15c.31.28.72.61,1.16,1s.88.73,1.33,1a11.67,11.67,0,0,0,1.2.77,1.22,1.22,0,0,0,.77.07c-.1.06-1,.45-1.14.54a4.56,4.56,0,0,1,2,.12,10.35,10.35,0,0,1,2.57,1,2.2,2.2,0,0,0-.79,0c-.26,0-.68.07-1,.08a4.78,4.78,0,0,1-2-.32c0,.19,0,.29.54.73.12-.07,1.32-.2,1.56.06-.41.28-.59.34-.71.44a1.38,1.38,0,0,1-1,.27,2.15,2.15,0,0,1,1,.45c.36.26.54.59.25.67-.15-.16-1.43-.84-1.47-1a1.46,1.46,0,0,1,.18,1.16c.14-.24-.85-.8-1.24-1,.24.18-.67.12-.82.26l.46.18a.7.7,0,0,0-.56.29c-.14.16-.42.41-.58.65a2.31,2.31,0,0,1-1.71,1.07c.19-.26.34-1.49-.6-1.5-.33.63-1.55,3-3.17,3.62l-.35-.29-1.23.5a30.67,30.67,0,0,1,3.81-3.85c-.72-.17-.24-.36-1.27-.21-.4-.26.51-.53.8-.59l-2.42.08c.18.66-1.79.86-1.64,1.41l2.56-1c.19.66-1.32,2.07-3.07,2.12-.47-.22.21-1.22.16-1.44a3,3,0,0,1-1.78.45l.7-.43c-1-.16-1.49,1-2.72.51-.41,0-1.29-.74-1.32-.34a4.49,4.49,0,0,1,.73,3.66,16.17,16.17,0,0,1-2.67-.83c-.73-.52.83-1.54.21-2,0,.19-.35.45-.49.54-.44-.11.11-.59-.81-.39-.07.69-1.89.19-.37.63-.88.32-1,0-2,.17.4.39-.72,1.61-1.56,2,0-.18-.22-.37-.33-.45-1.82.3-2.87.13-4.57.7-.2-.12-1.11,0-.87-.37a3,3,0,0,1-.84.82c-.64,0-.38-.15-.07-.37s.66-.43.1-.55c.1.37-1.17,1.23-1.58,2.09.31.11.66-.19,1.06-.57s.86-.82,1.19-1.1c.37.77-.67,2.11-1.1,3.38-.33,1-.71.14-.7.35a1.54,1.54,0,0,0-.14,1.21,1.84,1.84,0,0,0,.45.7,1.83,1.83,0,0,1,.63,1.6c-.24.92-1,.4-1.3.69-.58-1-.16-1.77-.22-2.45a5.51,5.51,0,0,0-.15.93,1.74,1.74,0,0,1-.26-1.5,3.82,3.82,0,0,0,.15,2.79c.39,1.26,1.09,2.57,1.37,3.59.34.24.8.71.85.34l-.38-.54c.1-.73,1.11.79.9,0a5.86,5.86,0,0,1,2,2.39l-.41.51c.14-.12-.09-.87-.43-1.08.49.3.25,2,1.23,2.1l-.09-1c.72.59,1.83,1.15,2.25,2.16.24-.74-.2-.17,0-1.2-.4,1-1.41-2.35-1.64-1,.3-1.09-.4-1.34-.29-2.56-.16.13-.16.5-.51-.32a1,1,0,0,1-.25-.08l0-.06V233s-.05,0,0,0a1,1,0,0,1,0,.55c-.63-.16-1.3-1.42-1.72-1.74-.16-.52.31.09.37-.27l-.65-.48c.35-.28.1-1.51.83-.59-.15-.32-.28-.62-.41-.93a3,3,0,0,0-.37-1.63c0-.36-.58-.76-.22-.52a3.17,3.17,0,0,1-.19-.92l.11,0a2.88,2.88,0,0,1,.59-1.2,2.35,2.35,0,0,1,2.07-.66,3.78,3.78,0,0,1,1.89-.61l.27.34c.69-.3,2.25,0,2.49-.49,1,.89,3.61-.31,5-.26v-.51a15.25,15.25,0,0,0,2.92-.62l-.11-.44c1-.47,2.59.07,4.18-.13-.09.18-.5.18-.79.1,2,.82,3.94-1.14,5.76-.63a1.42,1.42,0,0,1,1.06-.14l-.1,0,.18,0c.2,0,.41.11.64.15a2.27,2.27,0,0,0-.54-.17,6.5,6.5,0,0,0,1.32-.38l.29.44.11,0c.52.09.36-.29,0-.6l.33-.19a3.73,3.73,0,0,0,.37-.23c.37.32.85.16,1.32,0a2.2,2.2,0,0,1,1.58,0c.09-.26.83-.6,1.49-1s.91-.91.63-1.21c.12,0,.29,0,.07.16a1.33,1.33,0,0,0,.68-1.65l.59-.14a5.12,5.12,0,0,0-1.31-1.39c-.08-.69-.13-1.14,1-.33-1.08-1-1.4-1.31-1.72-1.64a4.69,4.69,0,0,0-.53-.49,7.43,7.43,0,0,0-1.05-.62l.39-.17c-.62-.6-1.5-.79-1.55-1.25a8.33,8.33,0,0,0-2.74-2.83c-.7-.55-1.48-1.06-2.21-1.63a18.56,18.56,0,0,1-2-1.63c-.06,1.31-1-1.17-1.56-.45,0-.33-.33-.68.23-.64-1.52-.53-1.9-1.54-3.22-1.35,0-.33.49-.21.42-.42-.14,0-.56,0-.63-.24s.31-.1.59-.09a1.63,1.63,0,0,0-2.45.66,1.35,1.35,0,0,0-1.69-.62c-.14-.36-.44-.81.49-.46-.48-.28-2.87-1.84-3.2-1.29-.08-.22-.67-.39-.83-.39-1.09-.58-1.15-.7-2.26-1.19l.25.25c-.78.47-1-.31-1.87-.7l.06-.06c-1.68-1.55-1-.24-2.55-1.88l-.15.47c-.71.79-1.37-1.56-2.54-1.89l.19.47c-.37,0-.55-.61-.6-1.2a7.58,7.58,0,0,0-.11-1.44c0-.14.22,0,.39.11-.24-.7-.34-.61-.55-.46a1,1,0,0,1-.34.21.46.46,0,0,1-.43-.13c.24-.26.78-.36.7-.63.11-.11-.26-.15-.53-.46s-.29-.84.18-.85c-.29-.07-.66,0-.6-.46.44-.6,1.56.1,2.24-1,.13,0,.2.09.22.15.3-.2.82-.47,1.32-.72a2.92,2.92,0,0,0,1.13-.78c.51.72,1.54.32,2.54-.06s1.94-.72,2,0c.74-.11,1.48-.22,2.24-.3l0,.16a3.28,3.28,0,0,0,2.44-.8c.34.08.11.24.08.32a5.61,5.61,0,0,0,4.15-.74l.22.48a6,6,0,0,1,2,.08,12.48,12.48,0,0,0,1.63,0,7.15,7.15,0,0,0,.85-.11l.42-.1.56-.15c0,.06-.06.16-.3.26a58.76,58.76,0,0,1,5.89-.84c2-.31,3.61-.77,2.8-1.47l.8-.53q0-.11,0-.22V183a.34.34,0,0,0,0-.05l-.08-.08c.07.07,0,.1,0,.13l-.09.08-.18.11c-.77.11-.8-.09-.92-.27s-.28-.31-.8-.26a1.32,1.32,0,0,1,.28-.1s.15,0,.14-.06l-.05-.12a.78.78,0,0,1,0-.42c0-.2.25-.23.65.23l0,.11c.82.33.5-.26.06-.88s-1-1.22-.54-1.21a22.61,22.61,0,0,0-2.71-2.64c-.51-.42-1.05-.84-1.63-1.24q-.42-.31-.88-.59l-.84-.53a45.82,45.82,0,0,0-5.18-2.82l.1.85-1.19-.58c-.25-.3-.19-.72.66-.3-.28-.59-1.59-.33-1.68-.19-1.58-1,1-.5.49-.74l-.73-.25.13.15c-.69,0-.87.3-1.9-.18-.6-.42-.16-.56-.41-.7,0,0-.06-.11-.39-.19l-1.53-.68.4.78c-.79,0-1.44-.61-1,.28-.66-1.39-5.66-2.57-6.21-3.07a8.14,8.14,0,0,1-3.26-.74c.26.21.23.89-.77.47.8-1.14-1.7-1.19-2.27-2.35.56.84-3-.76-2.09.47-.84-.37.09-.5-.48-1a10.81,10.81,0,0,1-3.42-.92,22.62,22.62,0,0,0-3.75-1.19c-.08.16.29.53-.33.65L700,161.75c-.54,0-.71.87-1.51.06.1.18.25.44-.11.41-5-2-10.6-1.46-15.65-3.76.67.43.19.4-.36.34.35.13-.07.43,0,.68l-2.13-.94c-.48.61-2.39-.21-2.68.39l.71,0c-1,.64,1.12,1.79.87,2.73,1.14-.74,2.54,1.58,4.38.6.34.25-.36.26-.19.51.48-.34,1-.35,1.93,0l-.12.08a16.18,16.18,0,0,1,3.25.67l3.43,1.06-.13-.51a2.74,2.74,0,0,1,1,.53c.87-.56-1.79-.39-1-1,.67,1.09,4.51.93,4.84,2.14,1,.22-.17-.6.81-.38l.19.35.33-.31c.63.21.86.65.83.9a2.68,2.68,0,0,0-.63-.06c.74.54,2.35.44,2.61.62l-.89-.4c2.72.37,5.82,1.62,8.52,1.81l-.13-.27c2,.2,1.48.7,3.64,1.19l-.09,0a3.44,3.44,0,0,1,1.66.22c-.61.07.84.81,0,.86,2.22.27,1.13,0,2.77-.29l.19.46a2.33,2.33,0,0,1,1.76,0c-1,0,.47.77-.63.82,1.89,1.57,3.52.44,4.08,1.94,1.37-.57-1.66-1.27-1-1.25-.35-.49,1.11-.41,1.75,0s.69,1.69,2.42,2.38c-.17-.08-.21,0-.38-.09.54.51,1.39.21,2,.94.69-.38,1,.47,1.45-.2l-1.65-.51c1,.19,2.19-.31,3.47.78a2.78,2.78,0,0,1-1,.06c.33.41.88.23,1.23.65-.46.67-2-.72-3.16-.56.33.49,2,.26,1.2.83,1.13-.69,1.61.88,3.1.64l-.28.4a2.55,2.55,0,0,1,1,.15l-.86.28c1.14,0,1.54,1.24,2.48,1.42-1.75-.88-.13-.71-.72-1.4,1.25.26,1.43.73,1.56,1.21s-.19.77.2.89c-.08,0-.08-.1-.06-.21a.3.3,0,0,1,.28-.26.42.42,0,0,1-.08.59.49.49,0,0,0,.55,0c.14-.09.22-.26.54-.21-.25.2-.12.21.19.25a3.7,3.7,0,0,1,1.12.23l-.78,0c.12.64,2,.25,2.06,1.06-.57-.22-1.1-.4-1.61-.54.21.12.42.26.64.42l-1.19-.29a4.44,4.44,0,0,1,.65.33c.1.06,0,.06,0,.08l-.09,0a4,4,0,0,1-.7,0c.71.2,1.52.63.93.78-.78-.13-.49-.39-1.07-.18-.2-.29-.68-.6.24-.32-.22-.12-.36-.25-.6-.37-.73-.19-.61.07-.79.1a.89.89,0,0,1,.3.06.93.93,0,0,1-.18.73.43.43,0,0,1-.27-.44c-.11.07-.09.29-.35.37a2.6,2.6,0,0,1-.23-1,1,1,0,0,1-.32.48.91.91,0,0,0-.09-.14l-.06-.08-.14-.07c-.2-.09-.35-.19-.24-.27-1-.12-2.37,1-3.75.76a.91.91,0,0,1-.49.24c-1.28,0-2.45-.44-4,.18l-.93-.65c-1.21.24,1.25.81-.76,1.2-1.43.33-.58-.56-1.11-.72a4.13,4.13,0,0,1-3.29.83A6.06,6.06,0,0,1,719.94,182.59Zm-13.74,8.87c-.2-.4-.56-1.35-.21-1.65C706.49,190.39,706.24,190.69,706.2,191.46Zm20.12,12.9c-.26,0-.52-.17-.77-.5A1.81,1.81,0,0,1,726.32,204.36ZM710.66,229l0,0C710.65,228.46,710.64,228.66,710.66,229Zm.23,1.13c.11.08.17,0,.21,0-.15,0-.26-.26-.34-.54C710.67,229.69,710.65,229.87,710.89,230.15ZM726,170.53l.19.22C725.59,170.65,725.78,170.6,726,170.53Z" transform="translate(44.5 -56.02)"/><path class="cls-7" d="M723.75,203.82a.48.48,0,0,1,0-.29C723.62,203.55,723.58,203.63,723.75,203.82Z" transform="translate(44.5 -56.02)"/><path class="cls-7" d="M729.24,181.72h0a.21.21,0,0,0,0-.09Z" transform="translate(44.5 -56.02)"/><path class="cls-7" d="M721.51,218.64a1.21,1.21,0,0,1,.56.18C722.07,218.71,721.94,218.62,721.51,218.64Z" transform="translate(44.5 -56.02)"/><path class="cls-7" d="M714.87,235.67l-.54-.64a1.42,1.42,0,0,1,.25.72C714.67,235.67,714.73,235.45,714.87,235.67Z" transform="translate(44.5 -56.02)"/><path class="cls-7" d="M716.34,243.44c.12.07.15.22.27.29l.17-.15C716.47,243.14,716.11,242.93,716.34,243.44Z" transform="translate(44.5 -56.02)"/><path class="cls-7" d="M713.91,237.17c-.31.27.09.65.47,1.11l-.06-.09C714.9,238,714.4,237.6,713.91,237.17Z" transform="translate(44.5 -56.02)"/><path class="cls-7" d="M714.46,238.38a2.65,2.65,0,0,1,.31.46C715,238.78,714.69,238.63,714.46,238.38Z" transform="translate(44.5 -56.02)"/><path class="cls-7" d="M711.84,231.44c0,.29.54-.09.46.12C712.89,231.6,710.92,230.25,711.84,231.44Z" transform="translate(44.5 -56.02)"/><polygon class="cls-7" points="757.53 182.27 757.84 181.82 757.32 181.75 757.53 182.27"/><path class="cls-7" d="M710.94,234.05l.35.89c.07-.05.17,0,.27.14C711.29,234.57,711.06,234,710.94,234.05Z" transform="translate(44.5 -56.02)"/><path class="cls-7" d="M711.56,235.08a1.79,1.79,0,0,0,.46.62A4.6,4.6,0,0,0,711.56,235.08Z" transform="translate(44.5 -56.02)"/><polygon class="cls-7" points="756.72 181.24 756.66 180.94 756.34 180.34 756.72 181.24"/><path class="cls-7" d="M709.11,225a4,4,0,0,1,.52-.81c0-.2-.32-.09-.53.24S708.89,225,709.11,225Z" transform="translate(44.5 -56.02)"/><path class="cls-7" d="M707.08,227.76c.09-.33.19-.35.36-.53l-.62,0C706.89,227.39,707,227.57,707.08,227.76Z" transform="translate(44.5 -56.02)"/><path class="cls-7" d="M707.78,224.21c-.13-.21.85-1.84-.24-.46C707.57,224,707,225.18,707.78,224.21Z" transform="translate(44.5 -56.02)"/><polygon class="cls-7" points="767.81 164.14 767.55 164.17 767.7 165.18 767.81 164.14"/><path class="cls-7" d="M736.65,216.21c-1.21-.05-.18.68-1.3.53-.25.28.92.12.66.37C736.69,216.73,737.09,216.81,736.65,216.21Z" transform="translate(44.5 -56.02)"/><path class="cls-7" d="M736,217.1a3.1,3.1,0,0,0-.35.21A1.28,1.28,0,0,0,736,217.1Z" transform="translate(44.5 -56.02)"/><polygon class="cls-7" points="723.24 101.83 722.46 101.54 722.94 101.93 723.24 101.83"/><path class="cls-7" d="M677.12,158.44l-.12-.67-.54.53C676.65,158.3,677,158.28,677.12,158.44Z" transform="translate(44.5 -56.02)"/><path class="cls-7" d="M706.61,195.26l.18,0c0-.24-.12-.42-.47-1Z" transform="translate(44.5 -56.02)"/><polygon class="cls-7" points="757.77 127.21 757.58 127.24 758.09 127.72 757.77 127.21"/><path class="cls-7" d="M722.69,181.09c-.38,0-.83.17-1.21.18C722.31,181.09,722.85,181.81,722.69,181.09Z" transform="translate(44.5 -56.02)"/><path class="cls-5" d="M713,280.82c.18.2.38-.18.45-.22C713.09,280.39,713,280.91,713,280.82Z" transform="translate(44.5 -56.02)"/><polygon class="cls-5" points="753.56 222.61 753.73 222.53 752.96 222.41 753.56 222.61"/><path class="cls-5" d="M706,275.77c-.21.78,1.17,1,1.54,1.66l0,.2.64-.19C707.44,276.9,706.33,276.35,706,275.77Z" transform="translate(44.5 -56.02)"/><path class="cls-5" d="M705.53,273.12c-.1.29-.51-.17.3.42a.7.7,0,0,1,0-.12A2.43,2.43,0,0,1,705.53,273.12Z" transform="translate(44.5 -56.02)"/><path class="cls-5" d="M705.81,273.43c.32.29,0-.36,0,0Z" transform="translate(44.5 -56.02)"/><path class="cls-5" d="M704.29,272.11l.58.24c0-.2-.29-.59-.08-.54C704.29,271.48,704.26,271.68,704.29,272.11Z" transform="translate(44.5 -56.02)"/><path class="cls-5" d="M703.54,272.07l.28.14C703.84,272.13,703.8,272.06,703.54,272.07Z" transform="translate(44.5 -56.02)"/><path class="cls-5" d="M704.42,272.52l-.6-.3c0,.14-.19.31.26.15C703.89,272.48,704.13,272.43,704.42,272.52Z" transform="translate(44.5 -56.02)"/><path class="cls-5" d="M704.59,272.85c.11.34.34.71-.24.47C705.19,274,705.43,273.56,704.59,272.85Z" transform="translate(44.5 -56.02)"/><path class="cls-5" d="M705.34,276.15l.17.45.44.09C705.73,276.65,705.48,276,705.34,276.15Z" transform="translate(44.5 -56.02)"/><path class="cls-5" d="M702.14,269.25c-.14.08-.17.41-.29.57l.41.19C702.2,269.79,702,269.42,702.14,269.25Z" transform="translate(44.5 -56.02)"/><path class="cls-5" d="M701.85,269.82l-.62-.3C701.59,270,701.76,270,701.85,269.82Z" transform="translate(44.5 -56.02)"/><polygon class="cls-5" points="747.4 216.53 748.52 216.9 747.25 216.38 747.4 216.53"/><polygon class="cls-5" points="745.06 211.41 745.56 211.45 744.75 211.32 745.06 211.41"/><path class="cls-5" d="M699.48,266.25c.39,0,.15-.59.46-.49a2.68,2.68,0,0,0-1.13-.54A1.51,1.51,0,0,1,699.48,266.25Z" transform="translate(44.5 -56.02)"/><path class="cls-5" d="M698.21,265a3,3,0,0,0,.61.23A1.76,1.76,0,0,0,698.21,265Z" transform="translate(44.5 -56.02)"/><path class="cls-5" d="M700.57,268.67a.74.74,0,0,0,0-.66l-.16.47Z" transform="translate(44.5 -56.02)"/><path class="cls-5" d="M700.41,268.49v0l-.33-.42Z" transform="translate(44.5 -56.02)"/><path class="cls-5" d="M700.62,268.72l0,0S700.56,268.73,700.62,268.72Z" transform="translate(44.5 -56.02)"/><path class="cls-5" d="M702,271.06c-.43-.11-1.15-.52-.9.29C701.53,271.34,701.39,270.88,702,271.06Z" transform="translate(44.5 -56.02)"/><path class="cls-5" d="M700.42,269.3l.38.57c.08-.09.12-.29.33-.23Z" transform="translate(44.5 -56.02)"/><polygon class="cls-5" points="744.6 213.13 744.92 213.28 744.78 213.07 744.6 213.13"/><path class="cls-5" d="M698.63,266.14a2,2,0,0,1-.8-.6,5.17,5.17,0,0,0,.64,1C698.61,266.47,698.9,266.45,698.63,266.14Z" transform="translate(44.5 -56.02)"/><path class="cls-5" d="M699.46,267.31l-.06,0C699.4,267.33,699.41,267.36,699.46,267.31Z" transform="translate(44.5 -56.02)"/><polygon class="cls-5" points="740.14 206.73 740.12 206.82 740.18 206.79 740.14 206.73"/><path class="cls-5" d="M698.46,266.62a.63.63,0,0,0,.52.39,3.83,3.83,0,0,1-.5-.49C698.41,266.54,698.38,266.56,698.46,266.62Z" transform="translate(44.5 -56.02)"/><path class="cls-5" d="M697.44,264.35a3.38,3.38,0,0,0,.13.54C697.58,264.69,697.56,264.32,697.44,264.35Z" transform="translate(44.5 -56.02)"/><path class="cls-5" d="M699.42,267.13l0,0C699.47,267,699.45,267.06,699.42,267.13Z" transform="translate(44.5 -56.02)"/><path class="cls-5" d="M699.42,267.13A1.75,1.75,0,0,0,699,267a2.05,2.05,0,0,0,.42.28A.51.51,0,0,1,699.42,267.13Z" transform="translate(44.5 -56.02)"/><path class="cls-5" d="M692.8,263.53c.35-.19,1.1.21,1.18,1,.64.34,1.4-.8,1.64-1.69-.15.09-.28.19-.87-.21,0,.32.5,1.49-.13,1.26-.7-.59-.33-.67-.42-1.14-.17.59-1.26-.48-1.73.1l.68.48C693.07,263.42,692.75,263.3,692.8,263.53Z" transform="translate(44.5 -56.02)"/><path class="cls-5" d="M696.36,263.87l.21.19a2.43,2.43,0,0,1-.16-1.08c-.43-.24-.61-.23-.73-.17l.78,1.1Z" transform="translate(44.5 -56.02)"/><path class="cls-5" d="M697.34,265c-.47.1-1-.3-1.14.31.53.62.64.22,1.09.48-.9-1,.42.14,0-.75a3.5,3.5,0,0,1,.53.48,5,5,0,0,1-.27-.65v0h0c0,.08,0,.11,0,0l0,0a.52.52,0,0,1-.16.06c-.17-.35.05-.12.16-.06l.06,0h0l-1-.87A4.17,4.17,0,0,0,697.34,265Z" transform="translate(44.5 -56.02)"/><path class="cls-5" d="M700,271.45a.12.12,0,0,1,0-.1C699.92,271.32,699.87,271.32,700,271.45Z" transform="translate(44.5 -56.02)"/><path class="cls-5" d="M699.8,270.87c.11,0,.29,0,.47.24s-.15.14-.25.24c.21.06.67.28.43-.3l-.11,0c-.25-.49-.29-1.36-.19-1.33A2.88,2.88,0,0,0,699.8,270.87Z" transform="translate(44.5 -56.02)"/><path class="cls-5" d="M698.41,268l-.86-.7.07.67.15-.17C698.1,268.33,698.23,268,698.41,268Z" transform="translate(44.5 -56.02)"/><polygon class="cls-5" points="740.24 206.5 740.69 206.34 739.8 206.23 740.24 206.5"/><polygon class="cls-5" points="739.35 205.41 739.7 205.22 739.29 205.06 739.35 205.41"/><path class="cls-5" d="M676.52,219.32l-.33-.12A1.28,1.28,0,0,0,676.52,219.32Z" transform="translate(44.5 -56.02)"/><path class="cls-5" d="M678.41,220.82l.16-.12C678.42,220.72,678.34,220.76,678.41,220.82Z" transform="translate(44.5 -56.02)"/><path class="cls-5" d="M702.4,241.33l2.3,1.06c.69.31,1.07.44.63.12l-1.06-.68a7.61,7.61,0,0,1-1-.23C703,241.52,702.68,241.43,702.4,241.33Z" transform="translate(44.5 -56.02)"/><path class="cls-5" d="M695.68,229.93l0,.19.5-.16Z" transform="translate(44.5 -56.02)"/><path class="cls-5" d="M694.38,231.21l-.35-.58A2.28,2.28,0,0,0,694.38,231.21Z" transform="translate(44.5 -56.02)"/><path class="cls-5" d="M677.12,206.37l.33-.54C676.78,206,677.12,206.14,677.12,206.37Z" transform="translate(44.5 -56.02)"/><path class="cls-5" d="M688.74,249.64a2.8,2.8,0,0,0,.21-.83C688.7,249.2,688.38,249.57,688.74,249.64Z" transform="translate(44.5 -56.02)"/><path class="cls-5" d="M680.1,216.28c-.2-.06-.32,0-.38,0C679.92,216.38,680.06,216.39,680.1,216.28Z" transform="translate(44.5 -56.02)"/><path class="cls-5" d="M689,247.87a1.93,1.93,0,0,0-.11.17,2.48,2.48,0,0,1,.09.77C689.12,248.51,689.26,248.2,689,247.87Z" transform="translate(44.5 -56.02)"/><path class="cls-5" d="M690.73,204.87a1,1,0,0,1-.08-.09C690.62,204.83,690.66,204.85,690.73,204.87Z" transform="translate(44.5 -56.02)"/><path class="cls-5" d="M679.32,196.33a3.71,3.71,0,0,1,.55.13A1.23,1.23,0,0,0,679.32,196.33Z" transform="translate(44.5 -56.02)"/><path class="cls-5" d="M691.86,256.75c.17.23.06,0,0,0Z" transform="translate(44.5 -56.02)"/><path class="cls-5" d="M691.17,258.87a.28.28,0,0,0-.24,0A.35.35,0,0,1,691.17,258.87Z" transform="translate(44.5 -56.02)"/><path class="cls-5" d="M686.86,244.69v0C686.76,244.73,686.78,244.72,686.86,244.69Z" transform="translate(44.5 -56.02)"/><path class="cls-5" d="M691.92,257.22a1.68,1.68,0,0,0-.08-.38A1.72,1.72,0,0,0,691.92,257.22Z" transform="translate(44.5 -56.02)"/><path class="cls-5" d="M692.06,257.06l.1.23C692.23,257.28,692.26,257.23,692.06,257.06Z" transform="translate(44.5 -56.02)"/><path class="cls-5" d="M691.63,256.43a1.8,1.8,0,0,1,.2.41c0-.06,0-.1,0-.09Z" transform="translate(44.5 -56.02)"/><path class="cls-5" d="M699.33,208.87l.06,0C699.7,208.75,699.57,208.78,699.33,208.87Z" transform="translate(44.5 -56.02)"/><path class="cls-5" d="M701.2,237l0,0,.07,0Z" transform="translate(44.5 -56.02)"/><path class="cls-5" d="M700.26,236.5a16.6,16.6,0,0,1,1.49.76,2.63,2.63,0,0,1-.44-.16l4.06,1.8-2.51-1.19Z" transform="translate(44.5 -56.02)"/><path class="cls-5" d="M671.34,214a6.16,6.16,0,0,0,.14,1.15c-1.42-1.11-1.31-2.39-1.59-1.11.71,0,1.15,1.12,2,2.11s2,1.82,2.46,1.36l.11.18.05.14.11.28c-.11-.11-.18-.06-.28-.17.37,1.15,1.21-.25,2.09.71.29.36.42.71.07.65l1,.36c.21.2,0,.34-.2.14q.64.44,1.29.85l0,0a6.53,6.53,0,0,1,1.17,0c.2.39-.24,0-.26.19l.87.24c.07.49-.7.35-1.14,0-.16,1.56.76.16,1.69,1.79l-.75-.33c0,.93.65,1.06,1.11,2,0-.33-.78-2,.16-1.79a1.18,1.18,0,0,0,1,.53c-.27.4.19.58.71.9l-.4.5c.64.22.79-.08,1.26-.1a1.19,1.19,0,0,1,.32,1.4c.91.73-.22-1.11,1-.44a4.47,4.47,0,0,0,2.54,1.22c.44.56-.31.26-.22.55l.78-.09c.11.09,0,.2-.08.25.53.11.39-.51,1.14-.22.57-.47.77,1.75,2,1.63.1.28-.31.26-.39.51a7.85,7.85,0,0,0,2.45.35l.52.87c-.29-.78.75-.76,1.65-.7a6.44,6.44,0,0,0-.18-.77l1.21.42c.06.17-.17.28-.49.38h.27c.22.45-.18.62-.64.73l-.13-.57a1.77,1.77,0,0,0-1.11.68.9.9,0,0,1,.43.09c-.13,0-.22.09-.23.16s.18,0,.44,0l-.19.74.22-.19,1,1.29a4.92,4.92,0,0,0,.5,0l.39-.09a3.82,3.82,0,0,1,.94-.05,5.68,5.68,0,0,1,2.49.8c-1-.12-1.16.19-2,.32.31-.18,0-.33-.34-.42s-.74-.14-.89-.34c.16.21-.16.34-.29.37a7.36,7.36,0,0,1,1.31.24c-.63.16-.31.25-.44.42,1.21-.34,1.5.32,2.38.64-.58,0-1.25-.12-1.45-.39-.42.16.15.22.84.39s1.48.38,1.09.5c-.12-.09-.08-.13-.45-.2.82.29,1,.74.16.47l-.1-.08a5.12,5.12,0,0,0,1.26,1.07,19.17,19.17,0,0,0,3,1.68l-3.62-1.54q2.28,1,4.88,2.4l.64.33.42.21.74.38,1.53.81-4.56-2.1c-1.68-.77-3.13-1.46-3.5-1.67s-.95-.39-.57-.14l1.73.78,1,.47a3,3,0,0,1,.43.22L700,236.77c.54.23,3,1.55,2.49,1.41-.32-.19-2.48-1.32-2.65-1.44l.24.16a8.85,8.85,0,0,1,1.24,1,23.82,23.82,0,0,0-2.5-1.42c.46.25-.55-.1-.53,0l.68.31c-.51-.14-.14.25.08.65s.34.79-.38.73a3.84,3.84,0,0,0-1.49-1.57,2.66,2.66,0,0,1,.26,1.62,1.87,1.87,0,0,1-.52,1,3.11,3.11,0,0,1-1.06.65l-.26-.31c-.3.15-.58.31-.86.48a9.15,9.15,0,0,1,1.26-1.89,3.15,3.15,0,0,0,.69-1.65c-.4-.26-.27-.39-.6-.35-.19-.3,0-.47,0-.48l-.29-.1-.13,0h0s0,0,0,0h-.28c.15.64-1.61.85-1.43,1.42.36-.18.74-.35,1.11-.5l.57-.22a.68.68,0,0,0,.12-.05s0,0,0,0l.09-.09a1.44,1.44,0,0,1,0,.58,3.18,3.18,0,0,1-.09.32,3.26,3.26,0,0,1-.32.32,3.5,3.5,0,0,1-1.82.86c-.42-.18,0-1.23,0-1.44a2.89,2.89,0,0,1-1.52.67c.18-.18.36-.36.55-.53a1.52,1.52,0,0,0-1.07.61,1.46,1.46,0,0,1-1.25.51c-.34.12-1.46-.16-1.31.22,1,.28,2.18,2.34,2.25,3-.06,0-.44,0-.88.09s-1,.18-1.2.18-.53-.4-.62-.81-.12-.82-.5-.83c.1.14,0,.55,0,.7-.37.18-.32-.52-.81.19.42.53-1,1.32.21.67-.3.75-.61.6-1,1.43.51,0,1,1.37,1,2a.74.74,0,0,0-.54,0,11,11,0,0,0-1,3.48c-.18.12-.36.8-.66.51a1.69,1.69,0,0,1,.4.82c-.53.9-.15-1-.82-.29.39,0,.62,1.14,1,1.7.56-.29-.09-1.4-.33-2,.84,0,1.73,1,2.37,2.12.43.95-.43.56-.27.71a1.9,1.9,0,0,0,1.1,1.5,1.3,1.3,0,0,1,.81,1.28c-.22.81-1,.48-1.25.77-.57-.73-.23-1.39-.46-1.93l0,.78a1.43,1.43,0,0,1-.56-1.08,4,4,0,0,0,.53,2.13,25.51,25.51,0,0,1,1.16,2.75c.3.16.72.48.78.17l-.32-.4c.14-.61,1,.5.85-.15.61.41,1.4.77,1.72,1.68l-.41.49c.13-.12,0-.71-.34-.83.44.17.13,1.67,1,1.56l0-.79c.63.38,1.65.67,2,1.46.27-.66-.17-.12.06-1-.43.93-1.2-1.74-1.48-.54.34-1-.31-1.06-.14-2.08-.16.13-.18.44-.46-.18a.82.82,0,0,1-.23,0v0s0,0,0,0a.83.83,0,0,1-.08.46c-.57,0-1.13-1-1.51-1.16-.12-.4.28,0,.36-.27l-.58-.3c.37-.27.17-1.26.83-.59q-.19-.36-.36-.73a2,2,0,0,0-.47-1.43c0-.37-.8-.69-.35-.51-.22-.35-.44-.7-.64-1.07l.11,0c-.12-.57-.45-1.14-.61-1.73a2.09,2.09,0,0,1,.24-1.88,2,2,0,0,1,0-1.39l.41,0c-.05-.51.74-1.18.43-1.49.58,0,.82-.43,1.05-.87s.45-.94.76-1.09l-.32-.39c.38-.3.64-.68,1.14-1.16l-.24-.38c.41-.62,1.59-.32,2.58-.51,0,.18-.3.18-.5.12.72.37,1.2.11,2-.15a5.51,5.51,0,0,1,3.5,0,2.29,2.29,0,0,1,1.41.18H701l.25,0,1.15.43a9.68,9.68,0,0,0-1-.42l.83.1.46,0,.5.06,1.09.72.19,0c1.26.51.33-.12-.74-.74.3,0,.5,0,.55-.14a4.72,4.72,0,0,0,2.07.81,7.76,7.76,0,0,1,2.75,1.07c-.17-.2.3-.15.85-.08s1.17.15,1.15,0a16.61,16.61,0,0,0-2.21-1.39c.46.23.69.3.69.4a1.25,1.25,0,0,0,.5,0c.07,0,0-.19-.37-.4l2.11,1c-.91-.55-1.63-1-2.27-1.34a17.65,17.65,0,0,1,3.14,1.39c-.47-.3-.65-.42-.77-.51l-.53-.41a22.86,22.86,0,0,0-2.09-1.44l1,.42c-.43-.42-2.14-1.42-1.65-1.38s-.6-1.14-1.78-2.31c-.6-.58-1.24-1.2-1.81-1.8a13.77,13.77,0,0,1-1.63-1.82c-.5.34-.62.07-.78-.28s-.47-.83-1-.67c.15-.23-.11-.63.61-.37a9.49,9.49,0,0,1-1.81-1.44,4,4,0,0,0-.75-.56,2,2,0,0,0-.43-.17,1.56,1.56,0,0,0-.38,0c0-.31.45-.17.45-.38-.12,0-.46,0-.46-.24s.28-.08.51-.07c-1-.7-1.64-.08-2.18.52-.29-.68-.59-.81-1.25-.64,0-.34-.17-.77.51-.41-.33-.28-2-1.83-2.36-1.31,0-.21-.47-.38-.61-.38a12.71,12.71,0,0,0-1.64-1.15l.16.23c-.74.43-.75-.3-1.44-.64l.06-.05c-1.15-1.43-.78-.2-1.86-1.68l-.19.45c-.71.77-.93-1.36-2-1.59l.15.43c-.66,0-.47-2-.84-2.43,0-.14.24,0,.41,0-.82-1.31-.51.41-1.47-.07,0-.39.7-.56.15-1-.12-.43-2.32-.29-2.71-1.4,0,.34,0,.67-.48.54-.66-.38-1-2-2.06-1.77a.28.28,0,0,1,0-.24c-.58-.18-1.68-.87-2.22-.76a.81.81,0,0,0-.21-1,1.71,1.71,0,0,0-.72-.36c-.56-.19-1.18-.59-.29-.78a1.77,1.77,0,0,1-.45-.85l.21,0a1.41,1.41,0,0,0,0-.39,2.23,2.23,0,0,0-.4-.85c.24-.05.31.12.39.17.53-.22.79-.23.95-.38a7.34,7.34,0,0,0,.53-.84q.14.22.25.45c0-.13.6-.13,1.32-.06a6.14,6.14,0,0,0,1.13,0,3,3,0,0,0,1.16-.26.35.35,0,0,1-.15.23c.83-.38,1.9,0,2.78.18s1.65.3,2.05-.56l1.23-.34c-1.53-.28.31-.76-.31-1.11.63-.06,1.53.71.77.71l-.11-.1c-.37.9,1.89.56,1.77,1.19,3.05.34,6,1.34,9,1.59l-.29-.75,1,.12c.26.19.34.6-.41.51.37.46,1.29-.29,1.31-.45,1.48.33-.61.84-.15.87l.63,0-.14-.09c.52-.3.55-.57,1.47-.57.59.13.31.44.55.46,0,.05.08.07.36,0a12.2,12.2,0,0,0,1.39,0l-.6-.52c.58-.35,1.27-.11.59-.69a2.13,2.13,0,0,0,1.38.35,13.69,13.69,0,0,0,1.94-.29l4.42-.92-4.06-2a8.88,8.88,0,0,1-2-1.09,4.76,4.76,0,0,1-2.47-.81c.17.21,0,.86-.71.43.86-1.08-1.14-1.19-1.36-2.35.29.83-2.26-.86-1.76.37-.6-.38.17-.47-.19-1-1.74-.22-3.27-1.79-5.27-2.42-.1.15.13.53-.39.61l-.69-1.22c-.42-.07-.72.8-1.2,0,0,.18.11.44-.16.39-3.51-2.28-8-2.18-11.5-4.91.44.49.07.41-.34.3.24.16-.13.41-.15.66L678.25,196c-.48.54-1.8-.46-2.14.1l.56,0c-.9.53.53,1.87.16,2.76,1-.59,1.67,1.79,3.27,1,.22.27-.33.22-.24.48.44-.29.85-.26,1.5.14l-.11.07c2,.54,2.75,1.21,4.87,2.24v-.5a1.76,1.76,0,0,1,.69.59c.79-.48-1.32-.51-.56-1.08.31,1.12,3.35,1.23,3.38,2.42.72.28,0-.59.71-.31l.09.35.32-.29a.85.85,0,0,1,.48.93,1.64,1.64,0,0,0-.48-.09c.48.57,1.77.57,1.93.76l-.62-.45c2.07.53,4.28,1.89,6.39,2.18l-.05-.27c1.6.27,1,.74,2.67,1.29l-.08,0a2.16,2.16,0,0,1,1.28.27c-.5,0,.51.81-.12.83,1.71.34.9.05,2.28-.19l.07.45a1.59,1.59,0,0,1,1.41,0c-.77,0,.23.75-.66.77a2.45,2.45,0,0,0,1,.77l.44-3.65c-.87.24-1.35,1-2,.23-.32.55.06.66.48.64s.84-.19.65,0c.43.24-.5.92-1.08.85s-1.07-1.15-2.42-1.11c.14,0,.14-.08.28-.08-.51-.26-1,.42-1.63,0-.37.61-.82-.06-1,.73l1.29-.15c-.72.17-1.46,1.13-2.66.57a2,2,0,0,1,.74-.43c-.34-.26-.69.11-1-.16.16-.78,1.59-.05,2.37-.66-.35-.34-1.47.54-1-.31-.63,1-1.35-.22-2.37.51l.11-.47a1.68,1.68,0,0,1-.77.21l.57-.56c-.83.44-1.43-.61-2.21-.43,1.56.18.28.61.9,1-2,.38-.94-1.36-3.17-1.43.31,0,1.08.43.58.59a3,3,0,0,1-1.15-.69c-1.49-.1.16.51-.51.72-.43-.64-.76.14-1.42.24l.06-.48c-1.66-.51-.57.94-2.05.39l.72-.59-.82.08.22-.53a2.67,2.67,0,0,1-2,0c.17.36-.18.85-.95.83-.51-.31.32-.44-.78-.43.26-.29.56-.66,1-.19.06-.15.27-.29.33-.44-.56-.36-1.46-.14-1.86-.16a1.08,1.08,0,0,1,.43.13c-.54.19-1.1.43-1.63.65-.26-.18-.06-.33.14-.47a7.42,7.42,0,0,1-1,.32c.11-.39.06-.8.77-1-.53.14-1.05.3-1.58.49-.11-.16-.86-.4-.67-.56a2.69,2.69,0,0,0-1.57.44,4.3,4.3,0,0,1-1.77.53.44.44,0,0,1-.12.14,3,3,0,0,1-.42.21,13.69,13.69,0,0,0-2.47.56,3.26,3.26,0,0,0-1.87,1.57,5.78,5.78,0,0,0-1.27.48c-.3.69.1.44.42.34s.55-.09.23.94l-.09.38c-.17,1-.69.1-1,.59a9.27,9.27,0,0,0,.72,1.63,6.74,6.74,0,0,1,.78,1.9A3.7,3.7,0,0,1,671.34,214Zm10.09,8.73c-.24,0-.79-.06-.76-.38C681.19,222.07,681.2,222.4,681.42,222.76Zm15.1,8.91c-.23,0-.39-.18-.51-.5A1.12,1.12,0,0,1,696.52,231.67Zm-6.46,22.59h0C690,253.76,690,253.94,690.06,254.26Zm.22.94a.13.13,0,0,0,.2,0c-.14,0-.24-.19-.32-.42C690.08,254.84,690.06,255,690.28,255.19Zm12.31-43.05-.22-.12C702.85,211.86,702.72,212,702.59,212.14Z" transform="translate(44.5 -56.02)"/><path class="cls-5" d="M694.54,231.07a.55.55,0,0,1,.07-.27C694.49,230.82,694.44,230.89,694.54,231.07Z" transform="translate(44.5 -56.02)"/><path class="cls-5" d="M677.06,206.47h0a.23.23,0,0,0,0-.09Z" transform="translate(44.5 -56.02)"/><path class="cls-5" d="M687.56,239.84a.93.93,0,0,1,.53-.18C688,239.56,687.85,239.56,687.56,239.84Z" transform="translate(44.5 -56.02)"/><path class="cls-5" d="M693.68,259.12l-.46-.45a.86.86,0,0,1,.2.56C693.5,259.15,693.56,259,693.68,259.12Z" transform="translate(44.5 -56.02)"/><path class="cls-5" d="M694.66,265.44c.11,0,.13.16.24.2l.16-.16C694.8,265.16,694.48,265,694.66,265.44Z" transform="translate(44.5 -56.02)"/><path class="cls-5" d="M692.72,260.53c-.3.28.05.53.38.86l0-.07C693.59,261.1,693.15,260.81,692.72,260.53Z" transform="translate(44.5 -56.02)"/><path class="cls-5" d="M693.17,261.46a1.57,1.57,0,0,1,.26.34C693.65,261.71,693.37,261.63,693.17,261.46Z" transform="translate(44.5 -56.02)"/><path class="cls-5" d="M691.1,256.12c0,.23.51-.15.43,0C692.08,256.1,690.31,255.3,691.1,256.12Z" transform="translate(44.5 -56.02)"/><polygon class="cls-5" points="736.35 205.59 736.66 205.16 736.18 205.19 736.35 205.59"/><path class="cls-5" d="M690.1,258.39l.28.69c.06-.06.16,0,.25.07C690.4,258.77,690.22,258.3,690.1,258.39Z" transform="translate(44.5 -56.02)"/><path class="cls-5" d="M690.63,259.16a1.1,1.1,0,0,0,.4.44A2.7,2.7,0,0,0,690.63,259.16Z" transform="translate(44.5 -56.02)"/><polygon class="cls-5" points="735.64 204.85 735.6 204.62 735.33 204.16 735.64 204.85"/><path class="cls-5" d="M687.07,251.24c-.09-.25-.2-.49-.28-.75-.18-.05-.26.18-.13.46S686.93,251.4,687.07,251.24Z" transform="translate(44.5 -56.02)"/><path class="cls-5" d="M686.45,254c0-.25.12-.3.23-.48l-.6.18Z" transform="translate(44.5 -56.02)"/><path class="cls-5" d="M685.6,251.65c-.19,0-.73-1.16-.48-.06C685.3,251.65,685.66,252.46,685.6,251.65Z" transform="translate(44.5 -56.02)"/><path class="cls-5" d="M689.75,240.14l-.17.13.67.77Q690,240.6,689.75,240.14Z" transform="translate(44.5 -56.02)"/><path class="cls-5" d="M697,235.7c-.54-.27.6.63,0,.3.11.23.54.27.65.47C697.65,236.23,697.9,236.39,697,235.7Z" transform="translate(44.5 -56.02)"/><path class="cls-5" d="M697.63,236.47a.59.59,0,0,0,0,.15A.15.15,0,0,0,697.63,236.47Z" transform="translate(44.5 -56.02)"/><polygon class="cls-5" points="721.77 139.16 721.23 138.79 721.52 139.22 721.77 139.16"/><path class="cls-5" d="M675.92,195.59l0-.67-.51.47C675.58,195.4,675.85,195.42,675.92,195.59Z" transform="translate(44.5 -56.02)"/><path class="cls-5" d="M682.09,224.83l.13-.1c0-.19-.1-.29-.32-.48Z" transform="translate(44.5 -56.02)"/><polygon class="cls-5" points="719.99 163.3 720.1 163.4 720.25 162.77 719.99 163.3"/><path class="cls-5" d="M669.91,210.62v0a7.46,7.46,0,0,0-.12,1.51c-.08-.81.49-1.26.42-1.44S670.1,210.63,669.91,210.62Z" transform="translate(44.5 -56.02)"/><polyline class="cls-4" points="837.22 251.48 852 233.55 856.5 236.98 842.78 253.76 837.22 251.48"/><path class="cls-12" d="M807.5,289.57s-.75-6.69,4.5-8.57a65.85,65.85,0,0,0,8.75-3.8s3.13,13.05-8.75,15.8Z" transform="translate(44.5 -56.02)"/></g><g id="Layer_5" data-name="Layer 5"><path class="cls-12" d="M605.26,272.28c-1.45-3.15-1.06-6.45.87-7.35l17.59-8.13c1.93-.89,4.71.95,6.16,4.09" transform="translate(44.5 -56.02)"/><rect class="cls-7" x="596.12" y="263.91" width="62" height="46.98" rx="12" ry="12" transform="translate(-18.22 233.64) rotate(-24.81)"/><circle class="cls-8" cx="627.62" cy="286.88" r="18.33" transform="translate(-17.95 233.8) rotate(-24.81)"/><circle class="cls-12" cx="627.62" cy="286.88" r="12.96" transform="translate(-17.95 233.8) rotate(-24.81)"/><circle class="cls-12" cx="599.96" cy="282.43" r="2.68" transform="translate(-18.64 221.78) rotate(-24.81)"/><polygon class="cls-13" points="817.88 297.68 802.15 291.22 821.16 244.89 846.29 255.2 817.88 297.68"/><polygon class="cls-8" points="800.27 290.45 816 296.9 835 250.57 809.87 240.26 800.27 290.45"/><polygon class="cls-4" points="815.02 242.38 819.43 222.21 825.95 223.07 821.16 244.89 815.02 242.38"/><path class="cls-12" d="M781.45,279.09,791.26,269s-11.09-9-23.87-2.72l7.55,12S778.58,275.08,781.45,279.09Z" transform="translate(44.5 -56.02)"/><polygon class="cls-5" points="826.97 247.28 835.33 226.92 841.39 229.41 831.94 249.31 826.97 247.28"/><path class="cls-8" d="M798.52,272.82c-9.67,1.83-7.7,10.12-7.7,10.12l6.07,2.49c6.83-1.31,8.57-11.61,9-16.46C805.22,270.32,803.33,271.9,798.52,272.82Z" transform="translate(44.5 -56.02)"/><path class="cls-6" d="M267.14,352.08" transform="translate(44.5 -56.02)"/><polygon class="cls-6" points="277.75 173.77 297.94 199.74 307.04 192.6 273.29 157.3 264.38 156.91 277.75 173.77"/><polygon class="cls-6" points="235.81 185.53 226.99 217.22 215.87 214.07 233.68 168.6 241.77 164.86 235.81 185.53"/><polygon class="cls-14" points="215.87 214.07 201.74 260.85 201.74 272.24 210.02 268.79 210.02 252.91 212.79 262.23 217.62 259.81 211.41 248.42 226.99 217.22 215.87 214.07"/><polygon class="cls-14" points="297.94 199.74 288.72 229.43 295.99 245.31 307.04 243.16 295.99 231.16 307.04 192.6 297.94 199.74"/><polygon class="cls-14" points="236.95 337.15 236.95 352.68 224.87 363.56 230.91 365.63 246.18 355.27 244.73 337.15 236.95 337.15"/><path class="cls-7" d="M180.37,419.58s-11.09,6-10.5,9.84S205,417.5,205,417.5v-8l-3.63-2.07.31,3.88-15.27,10.36Z" transform="translate(44.5 -56.02)"/><polygon class="cls-14" points="236.95 337.15 236.95 352.68 224.87 363.56 230.91 365.63 246.18 355.27 244.73 337.15 236.95 337.15"/><path class="cls-7" d="M180.37,419.58s-11.09,6-10.5,9.84S205,417.5,205,417.5v-8l-3.63-2.07.31,3.88-15.27,10.36Z" transform="translate(44.5 -56.02)"/><polygon class="cls-14" points="274.48 337.1 274.48 352.63 286.57 363.51 280.52 365.58 265.25 355.22 266.7 337.1 274.48 337.1"/><path class="cls-7" d="M242.07,419.53s11.09,6,10.5,9.84-35.14-11.91-35.14-11.91v-8l3.63-2.07-.31,3.88L236,421.6Z" transform="translate(44.5 -56.02)"/><polygon class="cls-14" points="274.48 337.1 274.48 352.63 286.57 363.51 280.52 365.58 265.25 355.22 266.7 337.1 274.48 337.1"/><path class="cls-7" d="M242.07,419.53s11.09,6,10.5,9.84-35.14-11.91-35.14-11.91v-8l3.63-2.07-.31,3.88L236,421.6Z" transform="translate(44.5 -56.02)"/><path class="cls-6" d="M244.47,289.59c0-47-13.71-85.07-30.63-85.07s-30.63,38.09-30.63,85.07" transform="translate(44.5 -56.02)"/><path class="cls-7" d="M188.77,156.82s-21.59,46.72-4.45,63.44,15.66,7,15.66,7l1.7-83.53Z" transform="translate(44.5 -56.02)"/><path class="cls-7" d="M238.87,156.82s21.59,46.72,4.45,63.44-15.66,7-15.66,7L226,143.76Z" transform="translate(44.5 -56.02)"/><ellipse class="cls-14" cx="258.32" cy="123.59" rx="29.5" ry="31.8"/><path class="cls-15" d="M220.26,194.9c0,4-2.88,7.31-6.44,7.31s-6.44-3.27-6.44-7.31" transform="translate(44.5 -56.02)"/><path class="cls-7" d="M243.28,171.5c0,17.27,5.63-2.21-10.66-2.21-10.44,0-21.37-5.14-26.62-13.81-1.1-1.81-4.7,4.91-8.4,8.59-6.23,6.2-13.32,11.32-13.32,7.43,0-17.27,13.2-30.37,29.49-30.37S243.28,154.24,243.28,171.5Z" transform="translate(44.5 -56.02)"/><path class="cls-14" d="M222.64,212.93c0,5.71-8.82,10.34-8.82,10.34S205,218.64,205,212.93s3.95-1.52,8.82-1.52S222.64,207.22,222.64,212.93Z" transform="translate(44.5 -56.02)"/><path class="cls-16" d="M187.88,174.6a6.57,6.57,0,0,0-1.45,4.84h-2.37s-.53-3.69-3.69-3.69v-1.93L187,171.5s19.9-4.88,22.53,4a9.3,9.3,0,0,1-1.08,7.06,9.86,9.86,0,0,0,.42-2.69,7.44,7.44,0,0,0-1.05-4.61c-2-2.7-11-4.29-15.81-3.16A6.57,6.57,0,0,0,187.88,174.6Z" transform="translate(44.5 -56.02)"/><path class="cls-17" d="M208.41,182.53a11.48,11.48,0,0,1-3.27,5.08,11.29,11.29,0,0,1-7.25,2.77,11,11,0,0,1-6.59-2,11.31,11.31,0,0,1-3.56-4.35,17.16,17.16,0,0,1-1.32-4.61,7,7,0,0,1,5.53-7.38c4.82-1.13,13.79.47,15.81,3.16a7.44,7.44,0,0,1,1.05,4.61,9.86,9.86,0,0,1-.42,2.69" transform="translate(44.5 -56.02)"/><line class="cls-17" x1="252.91" y1="126.51" x2="252.91" y2="126.52"/><path class="cls-16" d="M239.8,174.6a6.57,6.57,0,0,1,1.45,4.84h2.37s.53-3.69,3.69-3.69v-1.93l-6.59-2.32s-19.9-4.88-22.53,4a9.3,9.3,0,0,0,1.08,7.06,9.86,9.86,0,0,1-.42-2.69,7.44,7.44,0,0,1,1.05-4.61c2-2.7,11-4.29,15.81-3.16A6.57,6.57,0,0,1,239.8,174.6Z" transform="translate(44.5 -56.02)"/><path class="cls-17" d="M219.27,182.53a11.48,11.48,0,0,0,3.27,5.08,11.29,11.29,0,0,0,7.25,2.77,11,11,0,0,0,6.59-2,11.31,11.31,0,0,0,3.56-4.35,17.16,17.16,0,0,0,1.32-4.61,7,7,0,0,0-5.53-7.38c-4.82-1.13-13.79.47-15.81,3.16a7.44,7.44,0,0,0-1.05,4.61,9.86,9.86,0,0,0,.42,2.69" transform="translate(44.5 -56.02)"/><path class="cls-17" d="M241.25,179.44h2.37s.53-3.69,3.69-3.69v-1.93l-6.59-2.32s-19.9-4.88-22.53,4a9.3,9.3,0,0,0,1.08,7.06h0" transform="translate(44.5 -56.02)"/><path class="cls-18" d="M209.17,177.66c.47-1.88,2.67-3.18,5-3s4.1,1.58,4.32,3.39" transform="translate(44.5 -56.02)"/><ellipse class="cls-16" cx="242.1" cy="124.25" rx="2.63" ry="3.96"/><ellipse class="cls-16" cx="274.79" cy="124.25" rx="2.63" ry="3.96"/><path class="cls-6" d="M183.22,289.59h61.25s-31.39,22-61.25,0" transform="translate(44.5 -56.02)"/><path class="cls-8" d="M183.22,289.59l6.47,103.57H205l4.76-82.86,10.5,82.86h12.07l12.14-103.57S213.86,309.79,183.22,289.59Z" transform="translate(44.5 -56.02)"/></g></svg>