<svg id="Layer_1" data-name="Layer 1" xmlns="http://www.w3.org/2000/svg" viewBox="0 0 177.88 79.68"><defs><style>.cls-1{fill:#231f20;}</style></defs><title>Handwritten</title><path class="cls-1" d="M307.57,220.95a3.5,3.5,0,0,1-2,3.69c-2.85,1.49-.33,5.81,2.52,4.32a8.56,8.56,0,0,0,4.27-9.34,2.53,2.53,0,0,0-3.08-1.75,2.55,2.55,0,0,0-1.75,3.08Z" transform="translate(-264.58 -182.43)"/><path class="cls-1" d="M351.25,224.22c-.92,5.16-1.68,10.36-2.19,15.58-.42,4.3-1.83,10.77.15,14.86,3.4,7,11.33-.79,13.33-4.71,1.46-2.86-2.85-5.39-4.32-2.52-.66,1.29-2.73,5.47-4.68,3.32-.92-1,.17-7,.26-8.13.47-5.73,1.25-11.41,2.26-17.06.56-3.15-4.26-4.5-4.82-1.33Z" transform="translate(-264.58 -182.43)"/><path class="cls-1" d="M374.88,237.63c-4-1.26-7.45,1.49-8.83,5.15s-2.45,9.73,0,13.06c2.52,3.49,6.72,2.11,8.82-1,2.73-4,3.91-9.14,4.31-13.91.27-3.23-4.66-3.15-5,0a48.2,48.2,0,0,0,.75,14.78c.64,3.15,5.46,1.82,4.82-1.33a43.78,43.78,0,0,1-.57-13.45h-5c-.1,1.2-2.07,12-3.95,11.43-1.47-.48-.29-11.05,3.36-9.91,3.08,1,4.4-3.86,1.33-4.82Z" transform="translate(-264.58 -182.43)"/><path class="cls-1" d="M383.26,241.2c-.44,4.36-2.57,17.9,5.91,15.94,6.87-1.59,8.07-13.26,7.51-18.78a2.5,2.5,0,0,0-5,0c-.84,6.38,0,13.15.23,19.57.11,3.21,5.11,3.22,5,0-.21-6.42-1.07-13.19-.23-19.57h-5c.4,3.87.25,9.82-2.64,12.85-.79.82-.6,1.18-1.12.46s-.1-2.54-.09-3.39c0-2.37.19-4.73.43-7.08.32-3.2-4.68-3.18-5,0Z" transform="translate(-264.58 -182.43)"/><path class="cls-1" d="M401.74,241c-.37,4.93-1.73,10.74-.42,15.57.76,2.78,4.78,2.11,4.91-.66a38.76,38.76,0,0,1,1-8.18,14.62,14.62,0,0,1,1.28-3.31s2.81-4.08,3.1-2.31c.52,3.17,5.34,1.82,4.82-1.33-1-5.81-7.29-5-10.38-1.55-4,4.55-4.5,10.9-4.78,16.68l4.91-.66c-.6-2.2-.13-4.62,0-6.86l.55-7.39c.24-3.21-4.76-3.19-5,0Z" transform="translate(-264.58 -182.43)"/><path class="cls-1" d="M423.17,238.5a17.8,17.8,0,0,0-7.63,9.82c-1,3.09-1.68,8.86,1,11.29,3.4,3,7.1-1.39,8.94-3.93a27.62,27.62,0,0,0,4.89-13.18h-5a50.5,50.5,0,0,0,1.28,13.91c.73,3.13,5.55,1.81,4.82-1.33a45.55,45.55,0,0,1-1.11-12.58c.16-3.28-4.63-3.11-5,0a22.19,22.19,0,0,1-4.21,10.66c-.56.75-1.7,1.59-1.31,1.94-1.05-.94.39-5.36.8-6.38a12.49,12.49,0,0,1,5-5.9c2.71-1.72.21-6-2.52-4.32Z" transform="translate(-264.58 -182.43)"/><path class="cls-1" d="M440,257.87c3.22,0,3.22-5,0-5s-3.22,5,0,5Z" transform="translate(-264.58 -182.43)"/><path class="cls-1" d="M264.58,184.84l1.48,26.59c.18,3.2,5.18,3.22,5,0l-1.48-26.59c-.18-3.2-5.18-3.22-5,0Z" transform="translate(-264.58 -182.43)"/><path class="cls-1" d="M275,186l1.85,30.45c.19,3.2,5.2,3.22,5,0L280,186c-.19-3.2-5.2-3.22-5,0Z" transform="translate(-264.58 -182.43)"/><path class="cls-1" d="M272.9,195.54,269,196.69a2.5,2.5,0,0,0,1.33,4.82l3.85-1.16a2.5,2.5,0,1,0-1.33-4.82Z" transform="translate(-264.58 -182.43)"/><path class="cls-1" d="M285.52,201.67a10.31,10.31,0,0,0,16.74,4.19c4.19-3.85,6.27-14.51-1.58-15.74-8.18-1.28-11.76,12.22-10.64,18.15,1.48,7.91,10.55,10.43,16.23,5.08,2.35-2.21-1.19-5.74-3.54-3.54-3.33,3.13-7.67.75-7.89-3.58-.11-2.25.71-7.19,2.37-8.84s4.25-1.67,3.86,1a7.06,7.06,0,0,1-2.34,4,5.25,5.25,0,0,1-8.39-2c-1.11-3-5.95-1.69-4.82,1.33Z" transform="translate(-264.58 -182.43)"/><path class="cls-1" d="M309.65,187.54a81.16,81.16,0,0,0,2.21,20.59c1.11,4.28,3.34,8.22,8.29,8,3.2-.15,3.22-5.15,0-5-5.86.28-5.52-20-5.5-23.58,0-3.22-5-3.22-5,0Z" transform="translate(-264.58 -182.43)"/><path class="cls-1" d="M324.37,187.17c-.67,7.06-1.5,25.38,8.87,25.9,3.22.16,3.21-4.84,0-5s-3.7-8.5-3.93-10.71a51.42,51.42,0,0,1,.06-10.19c.3-3.2-4.7-3.18-5,0Z" transform="translate(-264.58 -182.43)"/><path class="cls-1" d="M344.09,193.13c3.22,0,3.22-5,0-5s-3.22,5,0,5Z" transform="translate(-264.58 -182.43)"/><path class="cls-1" d="M341.43,189.73c-3.22,4.61-6.45,9.94-5.05,15.81,1.12,4.72,5.71,8.37,10.67,7.27,5.21-1.15,6.95-7.2,6.81-11.91a12.67,12.67,0,0,0-8.32-12c-3-1.12-4.33,3.72-1.33,4.82,3.26,1.2,4.71,4.47,4.66,7.77,0,2.71-.91,7.29-4.55,6.32-7.38-2-1-12.13,1.43-15.55,1.85-2.64-2.48-5.14-4.32-2.52Z" transform="translate(-264.58 -182.43)"/><path class="cls-1" d="M359.77,207.31c-.33,1.79-1.72,3.14-.5,5a3.34,3.34,0,0,0,5.14.4c2.75-2.48,2.14-8.53-2.55-7.52-3.64.78-5.46,7.89-.65,8.15a4.05,4.05,0,0,0,2.82-1.15,3.81,3.81,0,0,0,.78-1l.3-.54q-2.32-.62-1.78.68a10.7,10.7,0,0,0,.19,1.8,11.65,11.65,0,0,1-.26,2.29,35.53,35.53,0,0,1-1.2,4.16c-1,3.06,3.81,4.37,4.82,1.33,1.28-3.87,2.59-8.48.74-12.4a4,4,0,0,0-3.37-2.61,3.5,3.5,0,0,0-2.3.84c-.34.27-1.07,1.63-1.41,1.68l1.93.25-.41-.29,1.15,1.49q.68,1.45-2-1.26-.32.69-.12.24l1.93.25-.36-.23,1.15,1.49a12.22,12.22,0,0,0,.75-1.78c.57-3.15-4.24-4.5-4.82-1.33Z" transform="translate(-264.58 -182.43)"/><path class="cls-1" d="M291.68,224l1.2,35.67c.11,3.21,5.11,3.22,5,0L296.68,224c-.11-3.21-5.11-3.22-5,0Z" transform="translate(-264.58 -182.43)"/><path class="cls-1" d="M306.27,240.08a127.78,127.78,0,0,1,1.14,17.07h5c0-1.9.89-16.48,3.54-15.05,2,1.09,1.25,11.07,1.36,13.57.14,3.2,5,3.24,5,0,0-2.9-.31-7.76,1.33-10.24,2.43-3.67,1.67.38,1.76,1.79.11,1.72.29,3.43.53,5.14.43,3.13,1.36,8.92,6,7,2.92-1.22,1.64-6.06-1.33-4.82,1.07-.45.5-.16.46-1.57,0-1.59-.45-3.31-.57-4.93a47,47,0,0,0-.3-5.7c-.5-2.49-2.18-4.45-4.9-4.44-7.62,0-8,12.61-7.94,17.78h5c-.22-4.92,1.82-19.54-6.61-19s-8.33,14.53-8.29,20.45c0,3.22,5,3.22,5,0a127.78,127.78,0,0,0-1.14-17.07c-.42-3.14-5.43-3.18-5,0Z" transform="translate(-264.58 -182.43)"/></svg>