<svg id="Layer_1" data-name="Layer 1" xmlns="http://www.w3.org/2000/svg" viewBox="0 0 273.04 45.3"><defs><style>.cls-1{fill:#231f20;}</style></defs><title>Hello I am Laura</title><path class="cls-1" d="M57.84,44a48.81,48.81,0,0,1,3.37-6.44A6.1,6.1,0,0,1,64,34.9a7.72,7.72,0,0,1,1.76-.44c.29,0,.44.07.44.15s-.15.22-.51.37a6.72,6.72,0,0,0-1.76,2,51.78,51.78,0,0,0-3.15,5.56,50.79,50.79,0,0,0-3.29,8,10.89,10.89,0,0,0,3.07-.22c.44-.15.73-.22.81-.07s0,.29-.37.51a7.89,7.89,0,0,1-3.81,1.1c0,.07-.22.66-.66,1.9q-2,6.15-2,8.56a2.53,2.53,0,0,0,.51,1.9,1.32,1.32,0,0,0,1.1.51,2.55,2.55,0,0,0,1.24-.44c1.54-1.1,3.15-3.51,5-7.17.22-.44.44-.66.59-.59s.22.37,0,.81A45.74,45.74,0,0,1,60.54,62a19.71,19.71,0,0,1-2.2,2.71,4.51,4.51,0,0,1-3.22,1.54,2.61,2.61,0,0,1-2.56-1.46,2.74,2.74,0,0,1-.37-1.32V62.2c0-.44.07-1,.15-1.68a17,17,0,0,1,.59-2.63,23.62,23.62,0,0,1,.73-2.34c.22-.51.44-1.24.81-2.2l.59-1.54c-1.1,0-5.56-.15-13.39-.51a36,36,0,0,1-7.61,12.88,22.61,22.61,0,0,1-5.85,4.68,19.63,19.63,0,0,1-9.51,2.49A20.52,20.52,0,0,1,14,70.76a12.91,12.91,0,0,1-4.83-2.34,9.47,9.47,0,0,1-3.29-4.61,11.6,11.6,0,0,1-.07-6.51,6.82,6.82,0,0,1,2.12-3.37c1.1-1,2-1.61,2.71-1.61.29,0,.44,0,.51.07s0,.15-.07.22a1.6,1.6,0,0,1-.37.22A5.49,5.49,0,0,0,8,55a9.26,9.26,0,0,0-1.68,5.34c0,3.15,1.54,5.49,4.61,7.1a14.31,14.31,0,0,0,6.51,1.39,14.58,14.58,0,0,0,3.07-.29c8.86-2,15.15-7.83,18.81-17.42a4.58,4.58,0,0,0-2,.44A3.6,3.6,0,0,1,36.1,52a.34.34,0,0,1-.37-.22c0-.44.29-.88,1-1.32a3.69,3.69,0,0,1,1.68-.66h1.54c1.68-4.24,3.59-8.49,5.78-12.81-.66.07-1.68.15-2.93.29s-2.27.22-3.07.29-1.76.22-2.93.37a18,18,0,0,0-2.85.66,26.68,26.68,0,0,0-2.56,1A10.25,10.25,0,0,0,29,41.27a11.75,11.75,0,0,0-3.22,5.2,8.35,8.35,0,0,0-.37,2.71,4.35,4.35,0,0,0,1,2.78,3.17,3.17,0,0,0,2.71,1.32c2.27,0,3.81-1.32,4.76-3.88a7.78,7.78,0,0,0,.66-2.56,1.91,1.91,0,0,0-.29-1.1c-.15-.22-.15-.37.15-.44a.4.4,0,0,1,.44.29,5,5,0,0,1-.29,4.76,6.48,6.48,0,0,1-3.66,3.29,5.77,5.77,0,0,1-2.2.37,5.6,5.6,0,0,1-2.2-.44,5.75,5.75,0,0,1-3.07-3.07A7.38,7.38,0,0,1,22.78,48a11.48,11.48,0,0,1,.37-2.71,9.17,9.17,0,0,1,1.46-3.07,9.31,9.31,0,0,1,2.78-2.56A22.74,22.74,0,0,1,30.68,38a17.33,17.33,0,0,1,4-1q2.31-.33,4-.44c1.1-.07,2.49-.22,4-.29s2.78-.15,3.51-.22a10.52,10.52,0,0,1,1.32-1.83A2.87,2.87,0,0,1,49,33.07a6.49,6.49,0,0,1,1-.22c1,0,1.46.44,1.46,1.24a2.45,2.45,0,0,1-1.61,2,6.42,6.42,0,0,1-3.07.81,69.89,69.89,0,0,0-3,7.32c-1.32,3.51-2,5.34-2,5.56,2,0,4.54.15,7.61.37s5,.37,5.78.37A67.63,67.63,0,0,1,57.84,44Zm-8.34-9.88c-.29,0-1,.66-2,1.9,1.68-.29,2.56-.73,2.56-1.39a.53.53,0,0,0-.44-.51Z" transform="translate(-5.37 -29.63)"/><path class="cls-1" d="M63.91,58.46a8.42,8.42,0,0,0-.59,3,2.92,2.92,0,0,0,.51,1.76,1.8,1.8,0,0,0,1.39.66c2.42,0,4.54-2.27,6.51-6.73.22-.44.44-.59.66-.59s.15.07.15.22A23.41,23.41,0,0,1,69.84,62a6.14,6.14,0,0,1-5,2.78,4,4,0,0,1-2.71-1A3.64,3.64,0,0,1,61.06,61a8.77,8.77,0,0,1,.88-3.81,15.25,15.25,0,0,1,2.34-3.73,8.12,8.12,0,0,1,3.37-2.49,4.71,4.71,0,0,1,1.76-.37,2.71,2.71,0,0,1,1.54.44,1.63,1.63,0,0,1,.66,1.24c0,1.61-1,3.07-2.85,4.54A7.77,7.77,0,0,1,66.25,58,5.8,5.8,0,0,1,63.91,58.46Zm6.66-6.29c0-.51-.22-.81-.66-.81-.73,0-1.83.88-3.37,2.71a19.93,19.93,0,0,0-2.34,3.73,9.58,9.58,0,0,0,2-.44,9.84,9.84,0,0,0,2.27-1.24A5.39,5.39,0,0,0,70.57,52.17Z" transform="translate(-5.37 -29.63)"/><path class="cls-1" d="M73.72,58c-.22.59-.37,1.24-.51,1.76A6.64,6.64,0,0,0,73,61.46a4,4,0,0,0,.37,1.61,1.42,1.42,0,0,0,1.24.73,3.68,3.68,0,0,0,2.78-1.9A53.65,53.65,0,0,0,80.23,57c.22-.37.44-.51.59-.44s.15.29.07.44l-.51,1.1a5.59,5.59,0,0,1-.59,1.17l-.66,1.17a7.25,7.25,0,0,1-.81,1.24q-.33.44-.88,1.1a3.45,3.45,0,0,1-1.1,1,5.64,5.64,0,0,1-2.63.88,3,3,0,0,1-1.9-.51A2.26,2.26,0,0,1,71,62.93a5.65,5.65,0,0,1-.15-1.1,8.46,8.46,0,0,1,.07-1.24,10,10,0,0,1,.51-2.49,5.86,5.86,0,0,1,.44-1.32,64.43,64.43,0,0,1,2.56-7.17,48,48,0,0,1,2.85-5.85,16.87,16.87,0,0,1,1.83-2.63,3.77,3.77,0,0,1,2.63-1.39c.59,0,1,.44,1.24,1.32,0,.22.07.37.07.59a7.76,7.76,0,0,1-1,3.37A35.24,35.24,0,0,1,74,56.85C74.08,57.07,73.94,57.44,73.72,58Zm4.68-7.54a34.22,34.22,0,0,0,2.93-5.34,11,11,0,0,0,1-3c0-.51-.07-.81-.29-.81s-.73.51-1.54,1.54a37.64,37.64,0,0,0-3,5.64c-1.24,2.71-2.27,5-3.07,7.1a24.87,24.87,0,0,0,4-5.12Z" transform="translate(-5.37 -29.63)"/><path class="cls-1" d="M82.13,58c-.22.59-.37,1.24-.51,1.76a6.64,6.64,0,0,0-.22,1.68,4,4,0,0,0,.37,1.61,1.42,1.42,0,0,0,1.24.73,3.68,3.68,0,0,0,2.78-1.9A53.65,53.65,0,0,0,88.65,57c.22-.37.44-.51.59-.44s.15.29.07.44l-.51,1.1a5.59,5.59,0,0,1-.59,1.17l-.66,1.17a7.25,7.25,0,0,1-.81,1.24q-.33.44-.88,1.1a3.45,3.45,0,0,1-1.1,1,5.64,5.64,0,0,1-2.63.88,3,3,0,0,1-1.9-.51,2.26,2.26,0,0,1-.81-1.17,5.65,5.65,0,0,1-.15-1.1,8.46,8.46,0,0,1,.07-1.24,10,10,0,0,1,.51-2.49,5.86,5.86,0,0,1,.44-1.32,64.43,64.43,0,0,1,2.56-7.17,48,48,0,0,1,2.85-5.85,16.87,16.87,0,0,1,1.83-2.63,3.77,3.77,0,0,1,2.63-1.39c.59,0,1,.44,1.24,1.32,0,.22.07.37.07.59a7.76,7.76,0,0,1-1,3.37,35.24,35.24,0,0,1-8.12,11.86A3.68,3.68,0,0,1,82.13,58Zm4.68-7.54a34.22,34.22,0,0,0,2.93-5.34,11,11,0,0,0,1-3c0-.51-.07-.81-.29-.81s-.73.51-1.54,1.54a37.64,37.64,0,0,0-3,5.64c-1.24,2.71-2.27,5-3.07,7.1a27.63,27.63,0,0,0,4-5.12Z" transform="translate(-5.37 -29.63)"/><path class="cls-1" d="M95.89,50.78c1.9,0,2.85,1.24,2.85,3.66A7.86,7.86,0,0,1,97.87,58a15.08,15.08,0,0,1-3.29,4.68,2,2,0,0,0,1.83,1,2.6,2.6,0,0,0,2-1.1,11.28,11.28,0,0,0,1.68-2.12l.73-1.39c.15-.29.37-.73.59-1.24l.44-1c.07-.15.15-.22.29-.15s.37.07.37.29a.44.44,0,0,1-.07.29l-.22.59c-.15.37-.29.66-.37.81l-.44.88a9.58,9.58,0,0,1-.51,1l-.59,1a10.71,10.71,0,0,1-.66,1c-.22.22-.44.51-.73.81a2.29,2.29,0,0,1-.81.66,3.39,3.39,0,0,1-1.83.59,3.12,3.12,0,0,1-2.56-1,5.67,5.67,0,0,1-3.37,1.32c-1.9,0-2.85-1.24-2.85-3.66a7.86,7.86,0,0,1,.88-3.59,12.58,12.58,0,0,1,3.37-4.68A5.91,5.91,0,0,1,95.89,50.78ZM96.33,52a4.07,4.07,0,0,0-2.56,1.39,13,13,0,0,0-2.63,3.88,11.6,11.6,0,0,0-1.39,4.68c0,1.24.44,1.83,1.39,1.83a3.35,3.35,0,0,0,2.2-1.1,3.16,3.16,0,0,1-.66-1.9c.07-1.1.51-1.68,1.39-1.68a1.35,1.35,0,0,1,.88.37,1,1,0,0,1,.37.66,1.43,1.43,0,0,1-.07.59,20.61,20.61,0,0,0,1.54-2.78,9.32,9.32,0,0,0,1-4c0-1.32-.51-2-1.46-2Z" transform="translate(-5.37 -29.63)"/><path class="cls-1" d="M109.28,63.81A4.1,4.1,0,0,1,108,66.88a7.2,7.2,0,0,1-2.85,1.76c-.07.07-.15.07-.29.07s-.15-.07-.15-.22.07-.22.29-.29a4.49,4.49,0,0,0,2-1.32,3.86,3.86,0,0,0,1-2.12,1.61,1.61,0,0,1-1.17.37,1.31,1.31,0,0,1-1.32-1.61,1.9,1.9,0,0,1,.66-1.17,1.71,1.71,0,0,1,1.32-.44,1.46,1.46,0,0,1,1.17.51A1.73,1.73,0,0,1,109.28,63.81Z" transform="translate(-5.37 -29.63)"/><path class="cls-1" d="M162.49,34.09l-1.68.37A60.85,60.85,0,0,0,156,47.19a45.83,45.83,0,0,1-2.27,6A34.34,34.34,0,0,1,150,59.27c-5.27,6.66-11.93,10-20.13,10-3.81,0-6.81-.81-9.07-2.49a8.49,8.49,0,0,1-3.07-4.39,9.82,9.82,0,0,1-.29-2.56,10.61,10.61,0,0,1,.81-3.66,9.65,9.65,0,0,1,2.63-3.73,6.38,6.38,0,0,1,2.85-1.76c.29,0,.44.07.44.15s-.07.22-.44.44a8.37,8.37,0,0,0-2.71,2.34,9.4,9.4,0,0,0-2.34,6.22,6.83,6.83,0,0,0,1.68,4.54,10.74,10.74,0,0,0,6.07,3.22,10.88,10.88,0,0,0,2.63.37H131a15.63,15.63,0,0,0,2.56-.44,22.75,22.75,0,0,0,6.29-2.71,27,27,0,0,0,5.12-4,35,35,0,0,0,4-4.76,38.9,38.9,0,0,0,4.68-8.78,80.56,80.56,0,0,1,5.93-12.73,60.17,60.17,0,0,0-10,2.85,19,19,0,0,0-5.85,3.73A12.09,12.09,0,0,0,140.31,47a7.22,7.22,0,0,0-.22,1.76,4.15,4.15,0,0,0,.88,2.71,2.53,2.53,0,0,0,2,1,6,6,0,0,0,2.27-.44,5.65,5.65,0,0,0,2.12-1.61,5.56,5.56,0,0,0,1.24-3.81c0-.73-.07-1.17-.29-1.39s0-.22.07-.37c.29-.37.51-.37.73,0a4.33,4.33,0,0,1,.51,2.12,5.43,5.43,0,0,1-.73,2.56A7.29,7.29,0,0,1,145,53.12a6.8,6.8,0,0,1-2.71.44,4.72,4.72,0,0,1-3.07-1.32,4.47,4.47,0,0,1-1.68-3.66,10.92,10.92,0,0,1,.15-1.54c1.54-6.81,9-11.27,22.54-13.61a8.33,8.33,0,0,1,1.32-1.83,4,4,0,0,1,1.61-1.32,2.94,2.94,0,0,1,1.1-.22q1.32,0,1.32,1.1a2.29,2.29,0,0,1-1,1.83A8.37,8.37,0,0,1,162.49,34.09Zm-1-.66c1.76-.37,2.63-.88,2.56-1.54a.5.5,0,0,0-.51-.51h0c-.37.07-1,.73-2,2Z" transform="translate(-5.37 -29.63)"/><path class="cls-1" d="M181.51,50.12c-3.22,5.71-4.83,9.44-4.83,11.05,0,.73.22,1.1.73,1.1a3.14,3.14,0,0,0,2.2-1.39,22.54,22.54,0,0,0,3.22-5.42q.22-.55.44-.44c.15.07.22.15.22.29a5.74,5.74,0,0,1-.37,1l-.66,1.24c-.15.29-.51,1-1,1.83a9.58,9.58,0,0,1-1.39,2,11.94,11.94,0,0,1-1.46,1.24,2.94,2.94,0,0,1-2,.59,2.18,2.18,0,0,1-1.9-1.1,2.34,2.34,0,0,1-.37-1.39,6.8,6.8,0,0,1,.37-2.12,20,20,0,0,1,2.2-4.1,3.45,3.45,0,0,0,.44-1.1q0-.44-.66-.44c-.44,0-1.24.51-2.34,1.61a28.24,28.24,0,0,0-3.59,4.24,14.38,14.38,0,0,0-2.27,4.32,1.17,1.17,0,0,1-1-.59,1.47,1.47,0,0,1-.29-1q0-1.65,2.2-6.15a6.86,6.86,0,0,0,.73-2c0-.37,0-.51-.15-.59a1.36,1.36,0,0,0-.51.15,12.85,12.85,0,0,0-2.2,1.76,26.63,26.63,0,0,0-5.42,7.68.88.88,0,0,1-.51.51,6.41,6.41,0,0,1-1.17.15,3.31,3.31,0,0,0-1.17.22c.51-1,1.32-2.63,2.49-5.2,2.12-4.54,3.59-7.17,4.24-7.83a1.48,1.48,0,0,1,1.32-.44,3.11,3.11,0,0,1,.81.15,4.17,4.17,0,0,0,1,.07c-1,.51-2.56,3-4.76,7.39a25.77,25.77,0,0,1,2.63-3l1.17-1.1.59-.59.66-.59a6,6,0,0,0,.66-.59l.59-.51c.22-.15.37-.29.59-.44a1.59,1.59,0,0,0,.59-.37A.83.83,0,0,1,172,50c.15,0,.37-.07.51-.07s.37-.07.44.07a1.1,1.1,0,0,1,.81,1,11.42,11.42,0,0,1-1.32,3.07c-.88,1.61-1.46,2.71-1.76,3.22A30.87,30.87,0,0,1,174,53.78a17.83,17.83,0,0,1,3.73-2.56A8.21,8.21,0,0,1,180.86,50,5.67,5.67,0,0,1,181.51,50.12Z" transform="translate(-5.37 -29.63)"/><path class="cls-1" d="M228.72,33.07a14.47,14.47,0,0,1-2.2,7.17,20.89,20.89,0,0,1-6.15,6.51,20.67,20.67,0,0,1-8.12,3.51q-2.42,4.83-3.51,6.81l-.81,1.32a34.07,34.07,0,0,1,13,5.85,9.63,9.63,0,0,1,3.51,5,7.54,7.54,0,0,1,.44,2.56,4,4,0,0,1-.44,1.83,2.58,2.58,0,0,1-1,1,2.62,2.62,0,0,1-.81.29.19.19,0,0,1-.22-.22,3.23,3.23,0,0,1,.44-1.17,6,6,0,0,0,.44-2.27,7.65,7.65,0,0,0-.59-2.85,6.88,6.88,0,0,0-2-2.93A15,15,0,0,0,216.49,63a34.76,34.76,0,0,0-4.61-1.68c-1.32-.29-3.07-.73-5.27-1.1-2.27,3.15-4.54,5.27-7,6.44a8.81,8.81,0,0,1-3.88,1.1,7.16,7.16,0,0,1-3-.66,3.58,3.58,0,0,1-2.27-3.37c0-1.54,1-2.85,3-4a18,18,0,0,1,9.07-2,21.39,21.39,0,0,1,3.73.29,76.84,76.84,0,0,0,4.17-7.61H210a12.5,12.5,0,0,1-4.61-.81A7.65,7.65,0,0,1,202,47.41a5.93,5.93,0,0,1-1.68-4.17,6.31,6.31,0,0,1,.59-2.63,7.81,7.81,0,0,1,2.71-2.85,14.26,14.26,0,0,1,5.34-2.2,3.67,3.67,0,0,1,.88-.15.44.44,0,0,1,.44.22c.07.15-.07.22-.29.37a2,2,0,0,1-.88.22A7.17,7.17,0,0,0,206,37.39a8.41,8.41,0,0,0-3.51,5,5.57,5.57,0,0,0-.22,1.54,7.35,7.35,0,0,0,.29,1.76,5.47,5.47,0,0,0,1.17,2.12,5,5,0,0,0,2.49,1.54,8.73,8.73,0,0,0,2.71.44,10,10,0,0,0,2.12-.15l3.37-8.49c2.34-5.93,5-9.59,8.27-11a5.83,5.83,0,0,1,2.49-.51,3.73,3.73,0,0,1,2.27.81,2.54,2.54,0,0,1,1.17,1.9A1.1,1.1,0,0,1,228.72,33.07ZM205.15,60a18.33,18.33,0,0,0-4-.44,16.5,16.5,0,0,0-4.24.59c-3,.81-4.83,1.9-5.34,3.37a2.6,2.6,0,0,0-.15.73,1.85,1.85,0,0,0,1.1,1.68,4.87,4.87,0,0,0,2.49.66,9.64,9.64,0,0,0,4-1A16.65,16.65,0,0,0,205.15,60ZM227,33.14c0-1-.44-1.54-1.39-1.54-1.32,0-3,1.17-4.9,3.51a41.14,41.14,0,0,0-4.32,6.81c-1.39,2.63-2.63,5.12-3.66,7.32a18.75,18.75,0,0,0,9.88-6Q227,38.41,227,33.14Z" transform="translate(-5.37 -29.63)"/><path class="cls-1" d="M231.2,55.61a16.7,16.7,0,0,0-1.54,3.73,17.26,17.26,0,0,0-.29,2c0,.51.22.81.59.81s1.1-.44,1.83-1.39A27.43,27.43,0,0,0,235,55.54c.07-.22.22-.37.37-.37s.29,0,.29.22a1,1,0,0,1-.15.44c-2.42,4.9-4.46,7.32-6.15,7.32a2.07,2.07,0,0,1-1.83-1.1,3.07,3.07,0,0,1-.37-1.61,9.2,9.2,0,0,1,.37-2.42c-2.12,3.44-4,5.12-5.49,5.12a2.21,2.21,0,0,1-1.17-.37,3.06,3.06,0,0,1-1.17-2.85c0-2.56,1.1-5.2,3.37-7.9a8.46,8.46,0,0,1,4.68-2.85,4.6,4.6,0,0,1,1.39-.22,4.31,4.31,0,0,1,3.07,1.24.69.69,0,0,1,.22.81.44.44,0,0,1-.66.29,1.82,1.82,0,0,0-1.9-1.39c-1.1,0-2.56.88-4.17,2.71a21.56,21.56,0,0,0-2.63,3.73,8.67,8.67,0,0,0-1.54,4.1c0,1,.37,1.54,1,1.54,1.61,0,3.66-2.42,6.22-7.25a9,9,0,0,1,1.24-2,1.76,1.76,0,0,1,1.32-.51,3.11,3.11,0,0,1,.81.15,4.17,4.17,0,0,0,1,.07A18.91,18.91,0,0,0,231.2,55.61Z" transform="translate(-5.37 -29.63)"/><path class="cls-1" d="M233.69,60.81a8.16,8.16,0,0,1,1.46-4.1c-.44,0-.51-.22-.37-.66l.73-1.39c.88-1.68,1.61-3.15,2.2-4.32a1.47,1.47,0,0,1,1.54-.81h2.42a10.15,10.15,0,0,0-2.85,4q-1.43,3-2.2,4.61a6.55,6.55,0,0,0-.81,2.56,1.86,1.86,0,0,0,.29,1.24,1.18,1.18,0,0,0,.81.37c.51,0,1.17-.51,2.12-1.61,1.39-1.61,3.37-5,5.85-10.32a1.47,1.47,0,0,1,1.54-.81h2.12a8.33,8.33,0,0,0-1.39,1.39,28.55,28.55,0,0,0-1.39,2.56,27.11,27.11,0,0,0-2.63,6.29,4.94,4.94,0,0,0-.15,1q0,1.32.88,1.32,2.09,0,5.27-6.59.22-.55.44-.44c.15.07.22.15.22.29a3.17,3.17,0,0,1-.37.88l-.66,1.39c-.22.44-.59,1-1,1.83a10.52,10.52,0,0,1-1.32,1.83,4.25,4.25,0,0,1-3,1.76,2,2,0,0,1-2-1.32,5.57,5.57,0,0,1-.22-1.54,8.16,8.16,0,0,1,.37-2.27c-1.9,3.37-3.73,5-5.34,5-1.39,0-2.27-.59-2.49-1.76A.84.84,0,0,1,233.69,60.81Z" transform="translate(-5.37 -29.63)"/><path class="cls-1" d="M254.48,47.27c0,1.17-.73,2.27-2.27,3.37.51,0,1.24.07,2.12.07a33.23,33.23,0,0,0,3.37-.22,2,2,0,0,1,.07.66,6.07,6.07,0,0,1-.44,1.54,19.59,19.59,0,0,1-.88,1.76l-.73,1.39c-.22.44-.44,1-.73,1.61a13.63,13.63,0,0,0-.66,1.76c-.66,2-.59,3,.29,3,1.1,0,2.71-2.2,4.9-6.59.22-.37.37-.44.44-.37a.38.38,0,0,1,.15.29,8.93,8.93,0,0,1-.51,1.24c-.37.73-.73,1.39-1.1,2.12a16.21,16.21,0,0,1-1.83,2.56c-1,1.24-2,1.83-2.85,1.83a2.15,2.15,0,0,1-2.12-1.83,5.65,5.65,0,0,1-.15-1.1,8,8,0,0,1,.44-1.9,17.44,17.44,0,0,1,1.46-2.85c.66-1.1,1-1.83,1.1-2a1.38,1.38,0,0,0,.15-.59c0-.81-1-1.24-3.15-1.32L251.11,53c-1.68,4.32-3.22,7.25-4.76,8.71-.29.22-.37.15-.37-.22a.44.44,0,0,1,.07-.29,28.83,28.83,0,0,0,3.81-6.88,38.08,38.08,0,0,0,2.27-7.61c.15-.81.51-1.24,1.1-1.24a1.3,1.3,0,0,1,1.24,1.1A2.4,2.4,0,0,0,254.48,47.27Z" transform="translate(-5.37 -29.63)"/><path class="cls-1" d="M269.41,55.61a16.7,16.7,0,0,0-1.54,3.73,17.26,17.26,0,0,0-.29,2c0,.51.22.81.59.81s1.1-.44,1.83-1.39a27.43,27.43,0,0,0,3.22-5.27c.07-.22.22-.37.37-.37s.29,0,.29.22a1,1,0,0,1-.15.44c-2.42,4.9-4.46,7.32-6.15,7.32a2.07,2.07,0,0,1-1.83-1.1,3.07,3.07,0,0,1-.37-1.61,9.2,9.2,0,0,1,.37-2.42c-2.12,3.44-4,5.12-5.49,5.12a2.21,2.21,0,0,1-1.17-.37,3.06,3.06,0,0,1-1.17-2.85c0-2.56,1.1-5.2,3.37-7.9A8.46,8.46,0,0,1,266,49.17a4.6,4.6,0,0,1,1.39-.22,4.31,4.31,0,0,1,3.07,1.24.69.69,0,0,1,.22.81.44.44,0,0,1-.66.29,1.82,1.82,0,0,0-1.9-1.39c-1.1,0-2.56.88-4.17,2.71a21.56,21.56,0,0,0-2.63,3.73,8.67,8.67,0,0,0-1.54,4.1c0,1,.29,1.54,1,1.54,1.61,0,3.66-2.42,6.22-7.25a9,9,0,0,1,1.24-2,1.76,1.76,0,0,1,1.32-.51,3.11,3.11,0,0,1,.81.15,4.17,4.17,0,0,0,1,.07A25.6,25.6,0,0,0,269.41,55.61Z" transform="translate(-5.37 -29.63)"/><path class="cls-1" d="M277.68,63.22a2,2,0,0,1-1.24.44,1.44,1.44,0,0,1-1-.44,1.39,1.39,0,0,1-.37-.73,2,2,0,0,1,.66-1.61,2.1,2.1,0,0,1,1.32-.51,1.44,1.44,0,0,1,1,.44,1.39,1.39,0,0,1,.37.73,2.49,2.49,0,0,1-.07.73A2.23,2.23,0,0,1,277.68,63.22Z" transform="translate(-5.37 -29.63)"/></svg>