<svg id="Layer_1" data-name="Layer 1" xmlns="http://www.w3.org/2000/svg" viewBox="0 0 329.99 102.94"><defs><style>.cls-1{fill:#231f20;}</style></defs><title>Signature</title><path class="cls-1" d="M252.66,255.83a21.29,21.29,0,0,0,19.52,17.52c11.45.65,19.64-9.18,25.21-17.9,4.28-6.69,13.38-22.36-.65-24.44-9.94-1.47-17.42,10.86-22.32,17.78-13.39,18.9-21.94,40.81-35.91,59.32a94.21,94.21,0,0,1-10.79,12.09,67,67,0,0,1-7.14,5.9c-1,.71-2.92,2.34-4.2,2.34-3.46,0-2.77-5.12-2.73-7.1a45.54,45.54,0,0,1,4.85-19.65c1.54-3,3.79-7.73,7-9.27,4.17-2,7.87,2,10.27,4.82,9.31,11,17.41,23.83,30.83,30.36,13.22,6.43,24.4-1.5,33.89-10.51,2.34-2.22-1.2-5.75-3.54-3.54-4.55,4.32-9.55,9.15-15.76,10.93-7.77,2.22-14.73-2.09-20.56-6.84a93.16,93.16,0,0,1-12.29-12.42c-3.88-4.62-7.12-10.15-11.61-14.21-18.6-16.81-32.75,24.94-27.29,38.53,6.8,16.91,35.28-21.23,39.06-27.06,11.57-17.82,19.87-37.68,32.78-54.65,2.83-3.73,12.14-16.89,17.49-10.61,2.76,3.24-3,11.36-4.78,14.23a61.94,61.94,0,0,1-6.32,8.82c-4.45,5-10.41,9.27-17.43,7.8a16.35,16.35,0,0,1-12.77-13.56c-.49-3.17-5.31-1.82-4.82,1.33Z" transform="translate(-208.26 -230.89)"/><path class="cls-1" d="M308.2,273.65c-5.75-6.17-13.63,3.23-17.41,7.16a64.67,64.67,0,0,0-9.18,11.55c-1.89,3.17-4.53,7.86-4.22,11.67a4.62,4.62,0,0,0,5.2,4.46c4.19-.36,7.54-4.69,10.38-7.3,4.6-4.22,9.22-8.42,13.8-12.65,3.44-3.18,6.31-5.91,6.79-10.73.23-2.36-2.79-3-4.27-1.77-5.06,4.27-24,26.16-10.65,30.77,5.55,1.91,11.75-2.74,15.79-5.91a51.78,51.78,0,0,0,13.82-16.69c1.26-2.37-2.08-5.36-3.93-3a61.92,61.92,0,0,0-12,24.58,2.53,2.53,0,0,0,3.67,2.82,64.64,64.64,0,0,0,29.06-26.45,2.51,2.51,0,0,0-3.93-3c-3.67,3.63-20,22.38-9.7,26.19,4.32,1.61,8.79-2.63,11.71-5.17,5.05-4.39,9.48-9.64,16.18-11.45L356.5,285c-3.38,4.39-8.1,10.1-9,15.74-.62,4.08,2.08,8.3,6.56,7.55,4.67-.78,9.48-6.45,12.91-9.39,5.42-4.63,10.92-9.22,17.57-12,2.89-1.2,1.9-5.59-1.33-4.82a31.39,31.39,0,0,0-16.6,9.93c-3,3.43-8.19,10.53-5.56,15.34,6,11,25.58-17.11,28.32-21.47,1.54-2.44-1.91-5-3.93-3-5.1,4.93-12.17,16.32-7.82,23.62,4.71,7.9,15.64-1.59,19-6.07,1.92-2.58-2.42-5.08-4.32-2.52a17.83,17.83,0,0,1-5.62,5q-2.52,2.18-5.05-.38a16.15,16.15,0,0,1,.33-3.62,23.34,23.34,0,0,1,7-12.53l-3.93-3a83.53,83.53,0,0,1-9.21,12.18c-1,1.13-9.82,9.81-10.36,8.44-.46-1.14,1.9-4.5,2.54-5.52a26,26,0,0,1,4.07-5,26.73,26.73,0,0,1,12.45-6.59l-1.33-4.82c-7.5,3.12-13.65,8-19.77,13.27-1.6,1.37-3.19,2.75-4.82,4.08-.93.77-1.87,1.52-2.83,2.25-1.79,1.35-1.93,2.28-2.17-.7-.39-4.65,4.39-9.89,7.16-13.47,1.4-1.81-.9-4.19-2.82-3.67-7.1,1.92-12,7-17.3,11.77-1,.93-3.79,4.16-5.12,4.11-3.84-.17-.18-4.72.67-6.23a49,49,0,0,1,8.42-10.86l-3.93-3a60.12,60.12,0,0,1-27.26,24.66l3.67,2.82a56.28,56.28,0,0,1,10.72-22.37l-3.93-3c-4.12,7.77-11.43,17.11-20.19,20-7.26,2.4-2.46-7.63-.84-10.48a43.57,43.57,0,0,1,9.92-11.65l-4.27-1.77c-.35,3.56-4.39,6.34-6.78,8.53L294.52,293l-7.26,6.66c-1.1,1-2.44,2.92-3.91,3.26s-1.12.61-.39-1.61c1.73-5.29,5-9.92,8.67-14,1.5-1.7,10.6-12.68,13-10.07,2.2,2.36,5.73-1.18,3.54-3.54Z" transform="translate(-208.26 -230.89)"/><path class="cls-1" d="M419.9,265.61c9.14,13.69,29,4.52,38-4.71,3.21-3.29,6.43-10.7,1-13.69-6.21-3.43-15,5.95-18.65,9.9-12.52,13.52-21.8,29.59-33.58,43.7a126.65,126.65,0,0,1-8.85,9.63c-.78.76-1.57,1.53-2.38,2.25-3.92,3.47-1,1-1,.58-.11-2.49,2.78-6.62,4-8.83,1.73-3.21,5.13-10.45,8.43-12.21,4.14-2.21,4.34,1.3,5.2,4.14a77,77,0,0,0,2.55,7.8c2.95,6.94,9.28,12,17.06,9.66,9.3-2.77,12.86-12.43,17.84-19.73,1.82-2.66-2.51-5.17-4.32-2.52-4.25,6.21-8.45,18.13-17.65,17.89-9.82-.25-9.09-14.29-13-20.32-8.67-13.41-22,15.16-24.33,21.18-.85,2.19-2.35,5.31-.69,7.48,1.29,1.69,3.47,1.83,5.39,1.2,2.58-.86,4.58-3.2,6.47-5a127.06,127.06,0,0,0,8.85-9.63c10.56-12.64,19.13-26.81,29.78-39.39,3.08-3.64,6.28-7.37,10.15-10.2,1.94-1.42,6.39-3.85,6,.05-.2,2.16-4.14,4.59-5.73,5.69-6.93,4.75-19.85,12.18-26.25,2.6-1.78-2.66-6.11-.16-4.32,2.52Z" transform="translate(-208.26 -230.89)"/><path class="cls-1" d="M455.33,278.29a61.81,61.81,0,0,0-8.41,21.06c-.77,4.07-1.24,10,3.61,11.8,6.32,2.3,12.13-6.89,15.55-10.59l18-19.52-3.93-3a209.25,209.25,0,0,0-18,30c-1.21,2.45,1.84,5.15,3.93,3l28.41-28.91-3.93-.51c1.23,2.14-5.79,11.23-7,13.21l-7.56,12.78,4.32,2.52a70.72,70.72,0,0,1,17.86-22.7c.62-.51,2.76-2.73,3.41-2.65,1.63.22,1.86,3.66,1.88,4.74a42.53,42.53,0,0,1-1.16,9.08c-.6,3.08-1.68,6.88.78,9.47,4.37,4.59,12.81.82,17.36-1.46a40.94,40.94,0,0,0,17.38-16.88c1.56-2.82-2.75-5.34-4.32-2.52A35.79,35.79,0,0,1,513,304.23a16,16,0,0,1-3,.73c-3.12.33-3.06-1.27-3-4.19.08-2.32,1-4.77,1.24-7.09.44-3.63.55-7.87-1.15-11.24-6.7-13.25-28.27,19.64-31,25.12-1.44,2.85,2.67,5.32,4.32,2.52l11.09-18.74c2.19-3.7,5.94-7.95,3.44-12.3a2.53,2.53,0,0,0-3.93-.51l-28.41,28.91,3.93,3a209.25,209.25,0,0,1,18-30c1.66-2.31-2-5.1-3.93-3L458,301.89c-.67.72-1.61,2.24-2.5,2.66-1.28.6-3.56.23-4.16-1.11-.76-1.69,1-5.94,1.55-7.75a58.76,58.76,0,0,1,6.73-14.89c1.7-2.74-2.62-5.26-4.32-2.52Z" transform="translate(-208.26 -230.89)"/><path class="cls-1" d="M472.52,262.72c3.22,0,3.22-5,0-5s-3.22,5,0,5Z" transform="translate(-208.26 -230.89)"/></svg>